<svg width="1684" height="1779" viewBox="0 0 1684 1779" fill="none" xmlns="http://www.w3.org/2000/svg">
<mask id="path-2-inside-1_810_2859" fill="white">
<path d="M643.509 1038.46C675.775 965.444 685.663 884.498 671.925 805.859C658.186 727.221 621.436 654.423 566.324 596.67C511.211 538.918 440.211 498.805 362.301 481.405C284.391 464.004 203.071 470.098 128.624 498.914L274.323 875.324L643.509 1038.46Z"/>
</mask>
<path d="M643.509 1038.46C675.775 965.444 685.663 884.498 671.925 805.859C658.186 727.221 621.436 654.423 566.324 596.67C511.211 538.918 440.211 498.805 362.301 481.405C284.391 464.004 203.071 470.098 128.624 498.914L274.323 875.324L643.509 1038.46Z" fill="white" stroke="#D4D4D4" stroke-width="4" mask="url(#path-2-inside-1_810_2859)"/>
<rect x="1495.5" y="1401.16" width="265.889" height="265.889" transform="rotate(45.4081 1495.5 1401.16)" fill="white" stroke="#D4D4D4" stroke-width="2"/>
</svg>
