<svg width="21" height="24" viewBox="0 0 21 24" fill="none" xmlns="http://www.w3.org/2000/svg">
<path fill-rule="evenodd" clip-rule="evenodd" d="M5.08474 2.68408H3.65285C2.89332 2.68408 2.16491 2.9858 1.62785 3.52287C1.09078 4.05993 0.789063 4.78835 0.789062 5.54787V20.5828C0.789063 21.3423 1.09078 22.0707 1.62785 22.6078C2.16491 23.1448 2.89332 23.4466 3.65285 23.4466H17.9718C18.7313 23.4466 19.4597 23.1448 19.9968 22.6078C20.5338 22.0707 20.8356 21.3423 20.8356 20.5828V5.54787C20.8356 4.78835 20.5338 4.05993 19.9968 3.52287C19.4597 2.9858 18.7313 2.68408 17.9718 2.68408H16.5399V4.11598H17.9718C18.3515 4.11598 18.7157 4.26684 18.9843 4.53537C19.2528 4.8039 19.4037 5.16811 19.4037 5.54787V20.5828C19.4037 20.9625 19.2528 21.3267 18.9843 21.5953C18.7157 21.8638 18.3515 22.0147 17.9718 22.0147H3.65285C3.27309 22.0147 2.90888 21.8638 2.64035 21.5953C2.37181 21.3267 2.22096 20.9625 2.22096 20.5828V5.54787C2.22096 5.16811 2.37181 4.8039 2.64035 4.53537C2.90888 4.26684 3.27309 4.11598 3.65285 4.11598H5.08474V2.68408Z" fill="#363636"/>
<path fill-rule="evenodd" clip-rule="evenodd" d="M12.9591 1.96803H8.66346C8.47358 1.96803 8.29148 2.04346 8.15721 2.17772C8.02295 2.31199 7.94752 2.49409 7.94752 2.68398V4.11587C7.94752 4.30575 8.02295 4.48786 8.15721 4.62212C8.29148 4.75639 8.47358 4.83182 8.66346 4.83182H12.9591C13.149 4.83182 13.3311 4.75639 13.4654 4.62212C13.5997 4.48786 13.6751 4.30575 13.6751 4.11587V2.68398C13.6751 2.49409 13.5997 2.31199 13.4654 2.17772C13.3311 2.04346 13.149 1.96803 12.9591 1.96803ZM8.66346 0.536133C8.09382 0.536133 7.54751 0.762423 7.14471 1.16522C6.74191 1.56802 6.51562 2.11433 6.51562 2.68398V4.11587C6.51562 4.68551 6.74191 5.23183 7.14471 5.63463C7.54751 6.03742 8.09382 6.26371 8.66346 6.26371H12.9591C13.5288 6.26371 14.0751 6.03742 14.4779 5.63463C14.8807 5.23183 15.107 4.68551 15.107 4.11587V2.68398C15.107 2.11433 14.8807 1.56802 14.4779 1.16522C14.0751 0.762423 13.5288 0.536133 12.9591 0.536133L8.66346 0.536133Z" fill="#363636"/>
<path d="M5.08203 16.2869C5.08203 15.9072 5.23289 15.5429 5.50142 15.2744C5.76995 15.0059 6.13416 14.855 6.51392 14.855C6.89369 14.855 7.25789 15.0059 7.52642 15.2744C7.79496 15.5429 7.94582 15.9072 7.94582 16.2869V17.7188C7.94582 18.0986 7.79496 18.4628 7.52642 18.7313C7.25789 18.9998 6.89369 19.1507 6.51392 19.1507C6.13416 19.1507 5.76995 18.9998 5.50142 18.7313C5.23289 18.4628 5.08203 18.0986 5.08203 17.7188V16.2869ZM13.6734 10.5593C13.6734 10.1796 13.8242 9.81537 14.0928 9.54683C14.3613 9.2783 14.7255 9.12744 15.1053 9.12744C15.485 9.12744 15.8492 9.2783 16.1178 9.54683C16.3863 9.81537 16.5372 10.1796 16.5372 10.5593V17.7188C16.5372 18.0986 16.3863 18.4628 16.1178 18.7313C15.8492 18.9998 15.485 19.1507 15.1053 19.1507C14.7255 19.1507 14.3613 18.9998 14.0928 18.7313C13.8242 18.4628 13.6734 18.0986 13.6734 17.7188V10.5593ZM9.37771 13.4231C9.37771 13.0434 9.52857 12.6792 9.7971 12.4106C10.0656 12.1421 10.4298 11.9912 10.8096 11.9912C11.1894 11.9912 11.5536 12.1421 11.8221 12.4106C12.0906 12.6792 12.2415 13.0434 12.2415 13.4231V17.7188C12.2415 18.0986 12.0906 18.4628 11.8221 18.7313C11.5536 18.9998 11.1894 19.1507 10.8096 19.1507C10.4298 19.1507 10.0656 18.9998 9.7971 18.7313C9.52857 18.4628 9.37771 18.0986 9.37771 17.7188V13.4231Z" fill="#363636"/>
</svg>
