<svg width="25" height="24" viewBox="0 0 25 24" fill="none" xmlns="http://www.w3.org/2000/svg">
<path d="M19.4955 11.4605L17.2032 18.3372C17.1288 18.5606 16.95 18.7338 16.7242 18.8009L2.67484 22.9776C2.11504 23.144 1.59962 22.6115 1.78429 22.0575L6.34578 8.37307C6.41212 8.17404 6.56177 8.01373 6.75576 7.93385L13.2364 5.26533C13.5059 5.15438 13.8157 5.21632 14.0218 5.42238L19.3211 10.7218C19.5144 10.9151 19.582 11.2011 19.4955 11.4605Z" stroke="#363636" stroke-width="1.80467" stroke-linecap="round" stroke-linejoin="round"/>
<path d="M2.19922 22.5218L9.85581 14.8652" stroke="#363636" stroke-width="1.80467" stroke-linecap="round" stroke-linejoin="round"/>
<path d="M19.6387 11.0369L23.0417 7.63398C23.9813 6.69429 23.9813 5.17075 23.0417 4.23106L20.4895 1.67888C19.5498 0.739202 18.0262 0.739202 17.0865 1.67888L13.6836 5.0818" stroke="#363636" stroke-width="1.80467" stroke-linecap="round" stroke-linejoin="round"/>
<path d="M12.4089 12.3133C11.7042 11.6085 10.5614 11.6085 9.8567 12.3133C9.15193 13.018 9.15193 14.1608 9.8567 14.8654C10.5614 15.5702 11.7042 15.5702 12.4089 14.8654C13.1136 14.1608 13.1136 13.018 12.4089 12.3133Z" stroke="#363636" stroke-width="1.80467" stroke-linecap="round" stroke-linejoin="round"/>
</svg>
