<svg width="75" height="75" viewBox="0 0 75 75" fill="none" xmlns="http://www.w3.org/2000/svg">
<g clip-path="url(#clip0_657_9932)">
<path d="M9.34096 8.45603C8.36634 8.45603 7.57625 9.24611 7.57625 10.2207C7.57625 11.1954 8.36634 11.9854 9.34096 11.9854V8.45603ZM24.4916 11.9854C25.4662 11.9854 26.2563 11.1954 26.2563 10.2207C26.2563 9.24611 25.4662 8.45603 24.4916 8.45603V11.9854ZM9.34096 16.9121C8.36634 16.9121 7.57625 17.7022 7.57625 18.6768C7.57625 19.6514 8.36634 20.4415 9.34096 20.4415V16.9121ZM32.067 20.4415C33.0416 20.4415 33.8317 19.6514 33.8317 18.6768C33.8317 17.7022 33.0416 16.9121 32.067 16.9121V20.4415ZM22.5978 25.3682C21.6232 25.3682 20.8331 26.1583 20.8331 27.1329C20.8331 28.1075 21.6232 28.8976 22.5978 28.8976V25.3682ZM22.5978 33.8243C21.6232 33.8243 20.8331 34.6144 20.8331 35.589C20.8331 36.5636 21.6232 37.3537 22.5978 37.3537V33.8243ZM1.76562 42.7767H3.53033H1.76562ZM1.76562 3.03306H3.53033H1.76562ZM32.5442 1.76465L32.5459 -5.74589e-05H32.5442V1.76465ZM33.3472 2.13672L32.0321 3.31341L32.0328 3.31422L33.3472 2.13672ZM39.309 8.79166L37.9946 9.96916L37.9953 9.96998L39.309 8.79166ZM39.6423 9.69223L37.8776 9.68835V9.69223H39.6423ZM2.90193 44.0451V45.8098V44.0451ZM26.5576 28.8976C27.5323 28.8976 28.3223 28.1075 28.3223 27.1329C28.3223 26.1583 27.5323 25.3682 26.5576 25.3682V28.8976ZM26.5576 37.3537C27.5323 37.3537 28.3223 36.5636 28.3223 35.589C28.3223 34.6144 27.5323 33.8243 26.5576 33.8243V37.3537ZM37.8776 22.7257C37.8776 23.7003 38.6677 24.4904 39.6423 24.4904C40.6169 24.4904 41.407 23.7003 41.407 22.7257H37.8776ZM26.5576 45.8098C27.5323 45.8098 28.3223 45.0197 28.3223 44.0451C28.3223 43.0705 27.5323 42.2804 26.5576 42.2804V45.8098ZM9.34157 35.589H7.57687C7.57687 36.5636 8.36695 37.3537 9.34157 37.3537V35.589ZM9.34157 27.1329V25.3682C8.36695 25.3682 7.57687 26.1583 7.57687 27.1329H9.34157ZM15.0231 27.1329H16.7878C16.7878 26.1583 15.9977 25.3682 15.0231 25.3682V27.1329ZM15.0231 35.589V37.3537C15.9977 37.3537 16.7878 36.5636 16.7878 35.589H15.0231ZM33.8323 1.76465C33.8323 0.790028 33.0422 -5.74589e-05 32.0676 -5.74589e-05C31.093 -5.74589e-05 30.3029 0.790028 30.3029 1.76465H33.8323ZM32.0676 8.95232H33.8323H32.0676ZM33.2039 10.2207V8.45603V10.2207ZM39.6429 11.9854C40.6175 11.9854 41.4076 11.1954 41.4076 10.2207C41.4076 9.24611 40.6175 8.45603 39.6429 8.45603V11.9854ZM36.5438 31.174C35.5692 31.174 34.7791 31.9641 34.7791 32.9387C34.7791 33.9133 35.5692 34.7034 36.5438 34.7034V31.174ZM60.6472 34.7034C61.6218 34.7034 62.4119 33.9133 62.4119 32.9387C62.4119 31.9641 61.6218 31.174 60.6472 31.174V34.7034ZM36.5438 38.6008C35.5692 38.6008 34.7791 39.3909 34.7791 40.3655C34.7791 41.3401 35.5692 42.1302 36.5438 42.1302V38.6008ZM60.6472 42.1302C61.6218 42.1302 62.4119 41.3401 62.4119 40.3655C62.4119 39.3909 61.6218 38.6008 60.6472 38.6008V42.1302ZM41.3645 58.4055C40.3899 58.4055 39.5998 59.1955 39.5998 60.1702C39.5998 61.1448 40.3899 61.9349 41.3645 61.9349V58.4055ZM55.8265 61.9349C56.8011 61.9349 57.5912 61.1448 57.5912 60.1702C57.5912 59.1955 56.8011 58.4055 55.8265 58.4055V61.9349ZM26.2614 47.6296V49.3943V47.6296ZM26.2614 72.3529V74.1176V72.3529ZM70.9283 72.3529V74.1176V72.3529ZM72.3539 49.113H74.1186H72.3539ZM69.978 24.3897H71.7427H69.978ZM9.34096 11.9854H24.4916V8.45603H9.34096V11.9854ZM9.34096 20.4415H32.067V16.9121H9.34096V20.4415ZM3.53033 42.7767V3.03306H0.000919104V42.7767H3.53033ZM3.53033 3.03306C3.53033 3.10586 3.50619 3.20947 3.41285 3.31366L0.784031 0.958653C0.264492 1.5386 0.000919104 2.28745 0.000919104 3.03306H3.53033ZM3.41285 3.31366C3.31379 3.42423 3.13514 3.52935 2.90193 3.52935V-5.74589e-05C2.06598 -5.74589e-05 1.30928 0.372334 0.784031 0.958653L3.41285 3.31366ZM2.90193 3.52935H32.5442V-5.74589e-05H2.90193V3.52935ZM32.5425 3.52935C32.3094 3.52912 32.1309 3.42392 32.0321 3.31341L34.6623 0.960025C34.1377 0.37363 33.3816 0.000764608 32.5459 -5.66244e-05L32.5425 3.52935ZM32.0328 3.31422L37.9946 9.96916L40.6234 7.61415L34.6616 0.959212L32.0328 3.31422ZM37.9953 9.96998C37.9473 9.91642 37.9181 9.86307 37.9012 9.81732L41.2112 8.59225C41.0799 8.2374 40.8827 7.90324 40.6227 7.61333L37.9953 9.96998ZM37.9012 9.81732C37.8843 9.77166 37.8775 9.72835 37.8776 9.68835L41.407 9.6961C41.4078 9.32166 41.3425 8.94703 41.2112 8.59225L37.9012 9.81732ZM2.90193 42.2804C3.01311 42.2804 3.11767 42.3051 3.2077 42.3468L1.72647 45.5503C2.09222 45.7194 2.4923 45.8098 2.90193 45.8098V42.2804ZM3.2077 42.3468C3.297 42.388 3.36474 42.4424 3.41285 42.4961L0.784031 44.8511C1.04317 45.1403 1.36144 45.3815 1.72647 45.5503L3.2077 42.3468ZM3.41285 42.4961C3.46063 42.5494 3.48967 42.6025 3.50659 42.6481L0.197647 43.876C0.328782 44.2294 0.525216 44.5622 0.784031 44.8511L3.41285 42.4961ZM3.50659 42.6481C3.52349 42.6937 3.53033 42.7368 3.53033 42.7767H0.000919104C0.000919104 43.1496 0.066545 43.5227 0.197647 43.876L3.50659 42.6481ZM22.5978 28.8976H26.5576V25.3682H22.5978V28.8976ZM22.5978 37.3537H26.5576V33.8243H22.5978V37.3537ZM37.8776 9.69223V22.7257H41.407V9.69223H37.8776ZM26.5576 42.2804H2.90193V45.8098H26.5576V42.2804ZM11.1063 35.589V27.1329H7.57687V35.589H11.1063ZM9.34157 28.8976H15.0231V25.3682H9.34157V28.8976ZM13.2584 27.1329V35.589H16.7878V27.1329H13.2584ZM15.0231 33.8243H9.34157V37.3537H15.0231V33.8243ZM30.3029 1.76465V8.95232H33.8323V1.76465H30.3029ZM30.3029 8.95232C30.3029 9.32528 30.3685 9.69833 30.4996 10.0516L33.8085 8.8238C33.8254 8.86933 33.8323 8.9125 33.8323 8.95232H30.3029ZM30.4996 10.0516C30.6307 10.405 30.8272 10.7378 31.086 11.0267L33.7148 8.67172C33.7626 8.72506 33.7916 8.77819 33.8085 8.8238L30.4996 10.0516ZM31.086 11.0267C31.3451 11.316 31.6634 11.5572 32.0284 11.726L33.5096 8.52241C33.5989 8.56369 33.6667 8.618 33.7148 8.67172L31.086 11.0267ZM32.0284 11.726C32.3942 11.8951 32.7942 11.9854 33.2039 11.9854V8.45603C33.3151 8.45603 33.4196 8.48079 33.5096 8.52241L32.0284 11.726ZM33.2039 11.9854H39.6429V8.45603H33.2039V11.9854ZM36.5438 34.7034H60.6472V31.174H36.5438V34.7034ZM36.5438 42.1302H60.6472V38.6008H36.5438V42.1302ZM41.3645 61.9349H55.8265V58.4055H41.3645V61.9349ZM27.2117 45.8649H26.2614V49.3943H27.2117V45.8649ZM26.2614 45.8649C25.3921 45.8649 24.5734 46.2248 23.981 46.8413L26.5258 49.2868C26.4681 49.3469 26.3745 49.3943 26.2614 49.3943V45.8649ZM23.981 46.8413C23.3909 47.4553 23.0711 48.2737 23.0711 49.113H26.6005C26.6005 49.1654 26.5812 49.2292 26.5258 49.2868L23.981 46.8413ZM23.0711 49.113V70.8695H26.6005V49.113H23.0711ZM23.0711 70.8695C23.0711 71.2865 23.15 71.701 23.3048 72.0898L26.5839 70.7845C26.5954 70.8134 26.6005 70.8421 26.6005 70.8695H23.0711ZM23.3048 72.0898C23.4596 72.4787 23.6882 72.8366 23.981 73.1412L26.5258 70.6956C26.5538 70.7247 26.5724 70.7555 26.5839 70.7845L23.3048 72.0898ZM23.981 73.1412C24.2738 73.4459 24.6253 73.6916 25.0173 73.8605L26.4144 70.6194C26.4605 70.6393 26.4977 70.6664 26.5258 70.6956L23.981 73.1412ZM25.0173 73.8605C25.4095 74.0296 25.8325 74.1176 26.2614 74.1176V70.5882C26.3159 70.5882 26.3681 70.5994 26.4144 70.6194L25.0173 73.8605ZM26.2614 74.1176H70.9283V70.5882H26.2614V74.1176ZM70.9283 74.1176C71.3572 74.1176 71.7802 74.0296 72.1724 73.8605L70.7753 70.6194C70.8216 70.5994 70.8738 70.5882 70.9283 70.5882V74.1176ZM72.1724 73.8605C72.5644 73.6916 72.9159 73.4459 73.2087 73.1412L70.6639 70.6956C70.692 70.6664 70.7292 70.6393 70.7753 70.6194L72.1724 73.8605ZM73.2087 73.1412C73.5014 72.8366 73.7301 72.4788 73.8849 72.0898L70.6058 70.7845C70.6173 70.7555 70.636 70.7247 70.6639 70.6956L73.2087 73.1412ZM73.8849 72.0898C74.0397 71.701 74.1186 71.2865 74.1186 70.8695H70.5892C70.5892 70.8421 70.5943 70.8134 70.6058 70.7845L73.8849 72.0898ZM74.1186 70.8695V49.113H70.5892V70.8695H74.1186ZM74.1186 49.113C74.1186 48.2737 73.7988 47.4553 73.2087 46.8413L70.6639 49.2868C70.6085 49.2292 70.5892 49.1654 70.5892 49.113H74.1186ZM73.2087 46.8413C72.6163 46.2248 71.7976 45.8649 70.9283 45.8649V49.3943C70.8152 49.3943 70.7216 49.3469 70.6639 49.2868L73.2087 46.8413ZM70.9283 45.8649H69.978V49.3943H70.9283V45.8649ZM28.9764 47.6296V24.3897H25.447V47.6296H28.9764ZM28.9764 24.3897C28.9764 24.4421 28.9571 24.5059 28.9017 24.5635L26.3569 22.118C25.7668 22.732 25.447 23.5504 25.447 24.3897H28.9764ZM28.9017 24.5635C28.844 24.6236 28.7504 24.671 28.6373 24.671V21.1416C27.768 21.1416 26.9493 21.5015 26.3569 22.118L28.9017 24.5635ZM28.6373 24.671H68.5524V21.1416H28.6373V24.671ZM68.5524 24.671C68.4393 24.671 68.3457 24.6236 68.288 24.5635L70.8328 22.118C70.2404 21.5015 69.4217 21.1416 68.5524 21.1416V24.671ZM68.288 24.5635C68.2326 24.5059 68.2132 24.4421 68.2132 24.3897H71.7427C71.7427 23.5504 71.4229 22.732 70.8328 22.118L68.288 24.5635ZM68.2132 24.3897V47.6296H71.7427V24.3897H68.2132ZM27.2117 49.3943H69.978V45.8649H27.2117V49.3943Z" fill="black"/>
</g>
<defs>
<clipPath id="clip0_657_9932">
<rect width="75" height="75" fill="white"/>
</clipPath>
</defs>
</svg>
