<svg width="22" height="22" viewBox="0 0 22 22" fill="none" xmlns="http://www.w3.org/2000/svg">
<path d="M11 21C16.523 21 21 16.523 21 11C21 5.477 16.523 1 11 1C5.477 1 1 5.477 1 11C1 16.523 5.477 21 11 21Z" stroke="white" stroke-width="1.5" stroke-linecap="round" stroke-linejoin="round"/>
<path d="M13.333 17.9999V16.1369C13.358 15.8269 13.315 15.5169 13.207 15.2239C13.0983 14.9307 12.9277 14.6643 12.707 14.4429C14.8 14.2159 17 13.4429 17 9.89887C17 8.99287 16.642 8.12087 16 7.46487C16.3041 6.67297 16.2826 5.79291 15.94 5.01687C15.94 5.01687 15.153 4.78987 13.333 5.97787C11.8038 5.57473 10.1962 5.57473 8.667 5.97787C6.847 4.78987 6.06 5.01787 6.06 5.01787C5.71797 5.79333 5.69641 6.67257 6 7.46387C5.35651 8.11785 4.99714 8.99938 5 9.91687C5 13.4359 7.2 14.2079 9.293 14.4609C9.07465 14.6804 8.90556 14.9439 8.797 15.2339C8.68922 15.5217 8.64488 15.8293 8.667 16.1359V17.9999M8.667 16.7019C6.667 17.3329 5 16.7019 4 14.7539" stroke="white" stroke-width="1.5" stroke-linecap="round" stroke-linejoin="round"/>
</svg>
