<svg width="23" height="24" viewBox="0 0 23 24" fill="none" xmlns="http://www.w3.org/2000/svg">
<path d="M18.0739 3.06348H5.08732C3.74252 3.06348 2.65234 4.15359 2.65234 5.49832V18.4841C2.65234 19.8289 3.74252 20.919 5.08732 20.919H18.0739C19.4187 20.919 20.5088 19.8289 20.5088 18.4841V5.49832C20.5088 4.15359 19.4187 3.06348 18.0739 3.06348Z" stroke="#363636" stroke-width="1.62327" stroke-linejoin="round"/>
<path d="M16.4539 6.31006H6.714C6.26574 6.31006 5.90234 6.67343 5.90234 7.12167V16.861C5.90234 17.3093 6.26574 17.6727 6.714 17.6727H16.4539C16.9022 17.6727 17.2656 17.3093 17.2656 16.861V7.12167C17.2656 6.67343 16.9022 6.31006 16.4539 6.31006Z" stroke="#363636" stroke-width="1.62327" stroke-linejoin="round"/>
<path d="M11.582 3.06366V1.44043" stroke="#363636" stroke-width="1.62327" stroke-linecap="round" stroke-linejoin="round"/>
<path d="M15.6406 3.06366V1.44043" stroke="#363636" stroke-width="1.62327" stroke-linecap="round" stroke-linejoin="round"/>
<path d="M7.52344 3.06366V1.44043" stroke="#363636" stroke-width="1.62327" stroke-linecap="round" stroke-linejoin="round"/>
<path d="M11.582 22.5422V20.9189" stroke="#363636" stroke-width="1.62327" stroke-linecap="round" stroke-linejoin="round"/>
<path d="M15.6406 22.5422V20.9189" stroke="#363636" stroke-width="1.62327" stroke-linecap="round" stroke-linejoin="round"/>
<path d="M7.52344 22.5422V20.9189" stroke="#363636" stroke-width="1.62327" stroke-linecap="round" stroke-linejoin="round"/>
<path d="M20.5156 11.9912H22.1389" stroke="#363636" stroke-width="1.62327" stroke-linecap="round" stroke-linejoin="round"/>
<path d="M20.5156 16.0493H22.1389" stroke="#363636" stroke-width="1.62327" stroke-linecap="round" stroke-linejoin="round"/>
<path d="M20.5156 7.93311H22.1389" stroke="#363636" stroke-width="1.62327" stroke-linecap="round" stroke-linejoin="round"/>
<path d="M1.03125 11.9912H2.65457" stroke="#363636" stroke-width="1.62327" stroke-linecap="round" stroke-linejoin="round"/>
<path d="M1.03125 16.0493H2.65457" stroke="#363636" stroke-width="1.62327" stroke-linecap="round" stroke-linejoin="round"/>
<path d="M1.03125 7.93311H2.65457" stroke="#363636" stroke-width="1.62327" stroke-linecap="round" stroke-linejoin="round"/>
</svg>
