<svg width="21" height="22" viewBox="0 0 21 22" fill="none" xmlns="http://www.w3.org/2000/svg">
<path d="M19.8029 1.13721L18.7656 2.17446" stroke="#363636" stroke-width="1.55588" stroke-linecap="round" stroke-linejoin="round"/>
<path d="M1.13281 1.13721L2.17006 2.17446" stroke="#363636" stroke-width="1.55588" stroke-linecap="round" stroke-linejoin="round"/>
<path d="M19.8029 15.6588L18.7656 14.6216" stroke="#363636" stroke-width="1.55588" stroke-linecap="round" stroke-linejoin="round"/>
<path d="M1.13281 15.6588L2.17006 14.6216" stroke="#363636" stroke-width="1.55588" stroke-linecap="round" stroke-linejoin="round"/>
<path d="M7.35547 17.7334H13.579" stroke="#363636" stroke-width="1.55588" stroke-linecap="round" stroke-linejoin="round"/>
<path d="M8.39453 20.8452H12.5435" stroke="#363636" stroke-width="1.55588" stroke-linecap="round" stroke-linejoin="round"/>
<path d="M10.4704 2.17432C6.3213 2.17432 4.19717 4.19726 4.24695 7.36058C4.27121 8.90286 4.76542 9.95371 5.80283 10.991C6.84024 12.0282 7.35886 12.5468 7.35871 14.6213H13.5822C13.5824 12.5469 14.101 12.0282 15.1379 10.9911C16.1751 9.95381 16.6698 8.90286 16.6939 7.36058C16.7437 4.19726 14.6196 2.17432 10.4704 2.17432Z" stroke="#363636" stroke-width="1.55588" stroke-linecap="round" stroke-linejoin="round"/>
</svg>
