<svg width="70" height="67" viewBox="0 0 70 67" fill="none" xmlns="http://www.w3.org/2000/svg">
<path d="M34.7516 2.00001C42.2678 1.99574 49.5564 4.57866 55.3928 9.31477C61.2291 14.0509 65.2575 20.6515 66.8009 28.0076C68.3444 35.3637 67.3089 43.0268 63.8685 49.7094C60.4281 56.3921 54.7924 61.6868 47.9083 64.7041L39.9336 44.3324C42.0708 43.1793 43.7622 41.3461 44.7398 39.123C45.7174 36.9 45.9254 34.4144 45.3307 32.0599C44.736 29.7053 43.3728 27.6165 41.4568 26.1243C39.5409 24.6321 37.1819 23.8218 34.7534 23.8218C32.3249 23.8218 29.9659 24.6321 28.05 26.1243C26.134 27.6165 24.7708 29.7053 24.1761 32.0599C23.5814 34.4144 23.7894 36.9 24.767 39.123C25.7446 41.3461 27.436 43.1793 29.5732 44.3324L21.5985 64.7077C14.7125 61.6919 9.07469 56.3975 5.63257 49.7144C2.19044 43.0314 1.15388 35.3671 2.6971 28.0097C4.24032 20.6524 8.26924 14.0506 14.1067 9.31399C19.9441 4.57736 27.2342 1.99466 34.7516 2.00001Z" stroke="black" stroke-width="3.53418" stroke-linecap="round" stroke-linejoin="round"/>
</svg>
