<svg width="21" height="22" viewBox="0 0 21 22" fill="none" xmlns="http://www.w3.org/2000/svg">
<path d="M8.25847 16.3142H7.54873C6.37279 16.3142 5.4195 15.361 5.4195 14.1851C5.4195 13.4699 5.4195 12.7169 5.41949 12.174C5.41949 11.5826 4 10.9911 4 10.9911C4 10.9911 5.41949 10.3996 5.4195 9.80816C5.4195 9.32589 5.4195 8.54868 5.4195 7.79718C5.4195 6.62124 6.37279 5.66797 7.54873 5.66797H8.25847" stroke="#363636" stroke-width="1.59693" stroke-linecap="round" stroke-linejoin="round"/>
<path d="M12.5156 16.3142H13.2254C14.4013 16.3142 15.3546 15.361 15.3546 14.1851C15.3546 13.4699 15.3546 12.7169 15.3546 12.174C15.3546 11.5826 16.7741 10.9911 16.7741 10.9911C16.7741 10.9911 15.3546 10.3996 15.3546 9.80816C15.3546 9.32589 15.3546 8.54868 15.3546 7.79718C15.3546 6.62124 14.4013 5.66797 13.2254 5.66797H12.5156" stroke="#363636" stroke-width="1.59693" stroke-linecap="round" stroke-linejoin="round"/>
<path d="M19.9678 2.04844V19.934C19.9678 20.2868 19.6819 20.5728 19.329 20.5728H1.44346C1.09068 20.5728 0.804688 20.2868 0.804688 19.934V2.04844C0.804688 1.69566 1.09068 1.40967 1.44346 1.40967H19.329C19.6819 1.40967 19.9678 1.69566 19.9678 2.04844Z" stroke="#363636" stroke-width="1.59693" stroke-linecap="round" stroke-linejoin="round"/>
</svg>
