<?xml version="1.0" encoding="UTF-8"?>
<svg id="Layer_1" data-name="Layer 1" xmlns="http://www.w3.org/2000/svg" viewBox="0 0 32 32">
  <defs>
    <style>
      .cls-1 {
        fill: #4c66b0;
      }

      .cls-2 {
        fill: none;
        <!-- stroke: #363636; -->
        stroke-width: 2px;
      }

      @media (prefers-color-scheme: dark) {
        .cls-2 {
          fill: #4c66b0;
          <!-- stroke: #363636;
          stroke-width: 2px; -->
        }
        .cls-1 {
          fill: #ffffff;
        }
      }
    </style>
  </defs>
  <rect class="cls-2" x="2.88" y="1.97" width="26.24" height="26.24" rx="6.22" ry="6.22"/>
  <path class="cls-1" d="m32,13.19h-4.33l-1.24,5.59h-.07l-1.47-5.59h-2.16l-1.47,5.57h-.07l-1.24-5.57h-6.98c-.15-.71-.37-1.35-.69-1.92-.59-1.03-1.38-1.82-2.37-2.35s-2.11-.8-3.33-.8-2.35.27-3.34.8-1.78,1.31-2.37,2.35c-.58,1.03-.88,2.3-.88,3.81s.29,2.76.88,3.8c.58,1.03,1.37,1.82,2.37,2.35s2.11.8,3.34.8,2.33-.27,3.33-.8c1-.53,1.79-1.31,2.37-2.35.32-.57.55-1.21.69-1.92h5.35l1.56,5.28h2.35l1.54-5.06h.07l1.54,5.06h2.35l1.55-5.27h2.71v-3.79Zm-22.94,3.94c-.21.56-.53.98-.94,1.27-.42.29-.93.43-1.54.43s-1.12-.14-1.54-.43c-.42-.29-.73-.71-.94-1.27-.21-.56-.32-1.24-.32-2.05s.11-1.49.32-2.05c.21-.56.53-.98.94-1.27.42-.29.93-.43,1.54-.43s1.12.14,1.54.43.73.71.94,1.27.32,1.24.32,2.05-.11,1.49-.32,2.05Z"/>
</svg>