<svg width="980" height="318" viewBox="0 0 980 318" fill="none" xmlns="http://www.w3.org/2000/svg">
<path d="M980 235.376C980 273.117 760.62 318 490 318C219.38 318 0 273.117 0 235.376C0 197.635 376.301 209.905 646.92 209.905C917.54 209.905 980 197.635 980 235.376Z" fill="#F2F2F2"/>
<path fill-rule="evenodd" clip-rule="evenodd" d="M489.762 44.3389C487.018 41.1634 485.162 37.2713 485.474 32.9093C486.373 20.3411 504.115 23.1 507.564 29.442C511.013 35.7841 510.598 51.8743 506.137 53.0095C504.358 53.4622 500.569 52.3559 496.713 50.065L499.128 66.9516L484.833 66.9564L489.762 44.3389Z" fill="#784931"/>
<path fill-rule="evenodd" clip-rule="evenodd" d="M501.924 22.5366C499.971 21.95 497.136 21.7518 495.943 21.8869C496.622 20.2837 496.892 18.4978 496.673 16.7591C496.46 15.0695 495.695 13.6311 494.987 12.1239C494.661 11.4291 494.291 10.7381 493.74 10.2068C493.178 9.66553 492.467 9.30834 491.722 9.13807C490.958 8.96377 490.16 8.97857 489.396 9.13723C489.058 9.2074 488.754 9.35994 488.423 9.44479C488.083 9.53173 487.919 9.3222 487.672 9.11167C487.078 8.60437 486.207 8.35413 485.456 8.26471C484.613 8.16444 483.738 8.29014 482.934 8.5637C482.151 8.83002 481.399 9.2623 480.833 9.89188C480.581 10.1721 480.352 10.4911 480.203 10.8432C480.142 10.9877 480.132 11.0733 479.986 11.1263C479.851 11.1753 479.692 11.1768 479.553 11.2235C478.203 11.6746 477.049 12.7031 476.42 14.0235C476.053 14.7937 475.879 16.1497 475.926 17.6695C475.973 19.1893 477.364 23.1544 478.665 24.6004C479.827 25.8911 481.534 26.7425 483.182 27.1149C482.088 28.3483 481.359 29.8893 480.82 31.4564C480.235 33.1588 479.872 34.9275 479.738 36.7296C479.61 38.4418 479.598 40.2524 480.004 41.9278C480.384 43.4946 481.198 44.7798 482.558 45.5948C483.18 45.9682 483.85 46.2486 484.524 46.5049C485.188 46.7574 485.854 47.0029 486.55 47.1445C487.866 47.4124 489.384 47.3659 490.398 46.3322C490.764 45.9595 491.166 45.4913 491.433 45.0361C491.529 44.8724 491.587 44.7654 491.47 44.6054C491.331 44.4139 491.105 44.2672 490.926 44.1173C489.904 43.2631 489.271 42.1225 489.112 40.7668C488.951 39.3913 489.326 37.6157 490.683 37.0149C492.357 36.2733 494.201 37.1233 495.689 37.9157C496.322 35.7145 497.621 33.7323 499.657 32.7221C501.91 31.6044 504.495 31.4728 506.81 30.5138C507.413 30.2638 508.028 29.9802 508.472 29.4712C508.658 29.2585 508.875 28.9825 508.95 28.7013C509.047 28.3318 508.806 28.0221 508.619 27.7342C507.63 26.2073 503.877 23.1232 501.924 22.5366Z" fill="#191847"/>
<path fill-rule="evenodd" clip-rule="evenodd" d="M496.375 116.83L474.783 191.929L459.03 247.282H447.54L464.28 116.83H496.375Z" fill="#191847"/>
<path fill-rule="evenodd" clip-rule="evenodd" d="M502.14 116.83C502.639 155.537 504.342 176.649 504.866 180.166C505.391 183.682 513.319 206.054 528.652 247.282H516.75C497.23 207.731 486.333 185.359 484.06 180.166C481.787 174.972 474.772 153.86 464.206 116.83H502.14Z" fill="#2F3676"/>
<path fill-rule="evenodd" clip-rule="evenodd" d="M529.723 257.999L529.127 245.555H516.621C510.69 249.703 502.948 253.061 493.394 255.629V257.999H516.025L523.767 256.814V257.999H529.723Z" fill="#191847"/>
<path fill-rule="evenodd" clip-rule="evenodd" d="M460.641 257.999L460.045 245.555H447.539C441.608 249.703 433.866 253.061 424.312 255.629V257.999H446.943L454.685 256.814V257.999H460.641Z" fill="#191847"/>
<path fill-rule="evenodd" clip-rule="evenodd" d="M447.825 101.187L427.487 112.941C422.219 113.773 417.759 115.027 414.107 116.704C413.217 117.351 412.08 118.732 415.474 118.829C418.869 118.926 422.436 119.179 422.781 120.366C423.126 121.552 420.945 122.698 421.722 124.332C422.241 125.42 425.47 123.165 431.408 117.566L450.925 111.847L447.825 101.187ZM529.135 108.821L518.482 108.493C525.388 134.402 529.121 148.119 529.681 149.643C530.942 153.071 527.851 158.115 526.509 160.837C530.506 162.779 530.303 156.103 535.342 158.643C539.941 160.962 543.361 164.989 548.874 161.881C549.552 161.499 550.332 159.998 548.616 158.742C544.339 155.614 538.208 150.186 537.415 148.443C536.332 146.066 533.572 132.859 529.135 108.821Z" fill="#B28B67"/>
<path fill-rule="evenodd" clip-rule="evenodd" d="M493.146 59.2754L487.083 56.0385C474.524 76.1027 457.799 94.7133 432.914 108.546L436.666 118.68C457.764 110.882 477.4 105.395 487.711 89.9491C491.171 84.7651 492.157 66.0263 493.146 59.2754Z" fill="#C5CFD6"/>
<path fill-rule="evenodd" clip-rule="evenodd" d="M504.496 123.934C485.714 122.635 471.201 120.089 460.956 116.295C459.687 115.826 459.866 113.615 460.735 112.246C474.281 90.9259 484.331 72.0127 487.16 56.0501C488.744 57.2227 491.763 57.8864 496.217 58.0413C504.981 76.5404 507.005 96.3568 504.496 123.934Z" fill="#323337"/>
<path fill-rule="evenodd" clip-rule="evenodd" d="M499.351 57.172L494.484 56.318C492.181 62.7187 472.769 151.459 456.554 178.757L516.263 189.232C519.714 162.224 515.204 128.263 509.63 99.5275C517.308 109.419 522.792 124.86 526.081 145.849L537.769 144.969C535.741 108.032 523.265 78.9555 500.341 57.7402C500.308 57.6022 500.274 57.4648 500.241 57.3282L499.811 57.2526C499.67 57.124 499.529 56.9958 499.388 56.8678L499.351 57.172Z" fill="#DDE3E9"/>
<path fill-rule="evenodd" clip-rule="evenodd" d="M830.967 79.3697C833.817 76.0092 835.747 71.8909 835.424 67.2763C834.495 53.9801 816.065 56.9051 812.48 63.6158C808.895 70.3266 809.321 87.349 813.954 88.5484C815.802 89.0267 819.738 87.855 823.745 85.43L821.23 103.296H836.078L830.967 79.3697Z" fill="#B28B67"/>
<path fill-rule="evenodd" clip-rule="evenodd" d="M841.904 62.8502C842.383 62.3729 842.645 61.6917 842.871 61.0448C843.106 60.3729 843.335 59.694 843.491 58.9946C843.802 57.5971 843.805 55.99 842.813 54.9049C842.017 54.0348 840.822 53.6445 839.72 53.5596C838.985 53.5031 838.231 53.6064 837.527 53.8388C836.828 54.0694 836.226 54.529 835.549 54.8143C835.523 53.3083 835.266 51.7326 834.505 50.4467C833.773 49.2095 832.606 48.5153 831.277 48.3316C829.912 48.1431 828.565 48.4637 827.344 49.127C827.038 49.2931 826.735 49.4671 826.445 49.6641C826.202 49.8291 825.95 50.0277 825.665 50.0948C825.348 50.1696 825.19 49.9855 824.984 49.7528C824.742 49.4801 824.469 49.2398 824.181 49.0268C822.905 48.0853 821.232 47.6981 819.754 48.2625C819.073 48.5226 818.411 48.9642 817.949 49.5727C817.537 50.1151 817.244 50.9756 816.675 51.3535C816.434 51.5139 816.264 51.3014 816.044 51.1443C815.714 50.9082 815.4 50.6478 815.066 50.4182C814.597 50.0956 814.09 49.8543 813.546 49.728C812.75 49.5431 811.65 49.5864 811.423 50.6332C811.337 51.0264 811.403 51.4469 811.43 51.8431C811.468 52.387 811.508 52.9308 811.555 53.474C811.591 53.8864 811.636 54.2848 811.713 54.6898C811.755 54.9057 811.884 55.3081 811.792 55.5243C811.677 55.7945 811.145 55.6409 810.918 55.6503C810.469 55.6689 810.019 55.7479 809.604 55.9405C809.282 56.0897 808.944 56.3092 808.808 56.6792C808.725 56.9066 808.747 57.1401 808.786 57.3739C808.834 57.6546 808.78 57.8035 808.744 58.0867C808.142 57.7887 806.054 57.1266 805.791 58.2111C805.703 58.5723 805.903 58.9803 806.055 59.2848C806.321 59.819 806.671 60.3072 807.028 60.7728C807.773 61.7441 808.663 62.5818 809.62 63.2983C808.499 63.799 808.206 65.2759 809.177 66.1558C809.606 66.5443 810.182 66.6308 810.723 66.606C810.921 66.5969 811.206 66.5205 811.362 66.5551C811.446 66.5737 811.535 66.645 811.651 66.653C812.415 66.7055 813.276 66.5208 814.022 66.3508C815.352 66.0477 816.61 65.4152 817.638 64.4519C817.902 64.2048 818.119 64.0625 818.474 64.0662C818.785 64.0693 819.09 64.1549 819.401 64.1628C820.223 64.1839 820.964 63.7804 821.728 63.5117C821.774 64.5473 822.068 65.6879 822.49 66.6196C822.834 67.3793 823.552 67.4897 824.258 67.5564C826.515 67.7697 828.781 67.5316 831.041 67.5348C828.853 68.0314 826.592 68.2361 824.424 68.8205C823.443 69.0846 824.192 69.7481 824.611 70.208C825.301 70.9653 825.814 71.9036 826.17 72.8922C827.24 71.4912 829.132 70.568 830.808 70.9984C832.66 71.4739 833.964 73.9888 832.78 75.7968C832.092 76.8464 830.851 77.2516 829.818 77.7025C830.624 78.5439 830.818 79.7866 831.304 80.8334C831.543 81.3496 831.879 81.9333 832.414 82.1132C832.611 82.1798 832.844 82.1855 833 82.3475C833.193 82.5482 833.239 82.7724 833.486 82.9449C834.472 83.6331 836.012 83.58 836.885 82.6819C837.675 81.8697 837.47 80.5844 836.81 79.7609C837.86 79.3212 839.774 78.7557 839.356 77.1124C841.633 76.9606 847.159 73.2536 844.104 70.5447C845.78 69.5932 847.321 67.2678 846.244 65.2179C845.414 63.6395 843.486 62.9339 841.904 62.8502Z" fill="#191847"/>
<path fill-rule="evenodd" clip-rule="evenodd" d="M862.911 180.958H815.116L808.853 258H880L862.911 180.958Z" fill="#C5CFD6"/>
<path fill-rule="evenodd" clip-rule="evenodd" d="M862.911 180.958H848.211L839.413 258H880L862.911 180.958Z" fill="black" fill-opacity="0.1"/>
<path fill-rule="evenodd" clip-rule="evenodd" d="M760.628 167.761C755.532 164.688 746.983 168.636 746.988 173.031C747.006 186.18 758.955 248.154 759.579 252.072C760.203 255.989 766.887 257.024 767.276 252.084C767.895 244.225 769.046 217.015 767.895 204.421C767.419 199.223 766.908 194.272 766.404 189.855C772.674 201.227 782.372 217.508 795.496 238.699L802.621 235.43C797.026 216.918 792.438 203.849 788.858 196.223C782.727 183.165 776.978 171.983 774.559 168.044C770.753 161.848 764.128 164.01 760.628 167.761Z" fill="#B28B67"/>
<path fill-rule="evenodd" clip-rule="evenodd" d="M802.114 225.148L777.66 166.971C771.802 157.507 755.376 168.897 757.374 174.386C761.91 186.848 784.977 227.192 786.329 230.905L802.114 225.148Z" fill="#1F28CF"/>
<path fill-rule="evenodd" clip-rule="evenodd" d="M803.475 231.761C804.998 233.021 805.989 234.049 806.447 234.847C807.005 235.817 807.658 237.327 808.407 239.375L778.187 256.896C775.903 254.744 775.547 253.074 777.12 251.885C778.692 250.696 779.99 249.693 781.013 248.877L791.443 234.445C791.644 234.167 792.031 234.106 792.307 234.307C792.312 234.311 792.317 234.314 792.321 234.318L794.488 235.994C796.477 235.819 797.96 235.448 798.94 234.881C799.735 234.419 800.648 233.46 801.679 232.001L801.679 232.001C802.075 231.442 802.847 231.31 803.404 231.708C803.428 231.725 803.452 231.743 803.475 231.761Z" fill="#E4E4E4"/>
<path fill-rule="evenodd" clip-rule="evenodd" d="M768.845 248.93C769.537 250.786 769.883 252.174 769.883 253.095C769.883 254.216 769.697 255.851 769.325 258H734.431C733.525 254.99 734.048 253.364 736.002 253.124C737.955 252.884 739.578 252.668 740.87 252.474L757.089 245.213C757.401 245.073 757.767 245.214 757.906 245.528C757.908 245.533 757.91 245.538 757.913 245.544L758.955 248.083C760.764 248.931 762.233 249.355 763.364 249.355C764.283 249.355 765.552 248.982 767.17 248.237L767.17 248.237C767.791 247.951 768.526 248.225 768.811 248.849C768.823 248.875 768.834 248.903 768.845 248.93Z" fill="#E4E4E4"/>
<path fill-rule="evenodd" clip-rule="evenodd" d="M745.276 177.5C745.276 194.006 753.081 232.508 753.086 236.143L769.88 236.156C767.422 201.801 766.551 184.438 767.265 184.068C768.338 183.513 811.222 188.368 824.084 188.368C842.631 188.368 850.303 176.622 850.926 154.864H814.185C806.705 155.668 767.685 163.572 753.194 166.289C746.99 167.452 745.276 172.953 745.276 177.5Z" fill="#2B44FF"/>
<path fill-rule="evenodd" clip-rule="evenodd" d="M808.461 116.158L786.987 104.347C783.416 100.088 779.898 96.7807 776.432 94.4245C775.373 93.9804 773.521 93.7117 775.253 96.7989C776.985 99.886 778.668 103.211 777.786 104.163C776.904 105.114 774.703 103.785 773.651 105.365C772.949 106.419 776.708 108.083 784.928 110.358L800.531 124.705L808.461 116.158ZM774.829 126.123L765.396 120.919C764.073 115.862 762.491 113.317 760.65 113.286C759.236 112.625 761.699 119.016 759.018 118.461C756.338 117.907 749.795 113.021 748.668 114.013C747 115.481 748.487 119.988 750.239 122.23C753.514 126.42 756.225 127.853 762.927 129.73C766.431 130.711 770.219 132.677 774.292 135.629L774.829 126.123Z" fill="#997659"/>
<path fill-rule="evenodd" clip-rule="evenodd" d="M818.915 113.526C811.393 113.446 801.363 111.851 790.661 105.029L786.458 114.441C793.84 121.799 804.22 127.844 813.296 127.588C820.448 127.386 824.104 118.698 818.915 113.526Z" fill="#2026A2"/>
<path fill-rule="evenodd" clip-rule="evenodd" d="M808.786 128.621C800.801 130.621 787.411 128.263 768.615 121.546C763.953 131.232 761.798 138.137 762.15 142.262C778.273 150.721 792.093 154.492 803.479 154.741C803.117 161.525 803.939 167.981 806.701 173.88C812.38 186.006 845.633 174.776 856.814 176.986C863.816 154.15 850.278 144.87 850.267 130.258C850.255 114.257 837.461 89.6274 835.579 89.6274H818.413C817.466 101.848 812.699 115.316 808.786 128.621Z" fill="#1F28CF"/>
<path fill-rule="evenodd" clip-rule="evenodd" d="M155.087 39.1638C153.251 35.2895 152.47 30.9365 153.93 26.6865C158.137 14.4408 174.722 21.8414 176.408 29.0459C178.094 36.2504 173.426 52.1207 168.771 52.0762C166.915 52.0584 163.51 49.9644 160.354 46.6763L158.237 64.0812L144.285 60.3309L155.087 39.1638Z" fill="#D4A181"/>
<path fill-rule="evenodd" clip-rule="evenodd" d="M160.154 39.5847C157.534 42.4512 154.471 44.3168 152.081 43.6742C147.54 42.4537 145.938 35.4959 147.687 28.9482C147.749 28.7181 147.814 28.4908 147.884 28.2664C142.197 30.2818 136.755 35.8043 130.399 34.096C121.752 31.7718 122.992 13.3534 135.072 16.6006C143.288 18.809 147.008 21.0969 150.016 23.8099C151.222 22.052 152.706 20.7002 154.291 19.9039C154.692 19.6388 155.254 19.4329 155.946 19.288C156.373 19.1837 156.803 19.1208 157.233 19.102C159.54 18.8922 162.728 19.1638 166.158 19.9583C166.799 20.1066 167.424 20.2676 168.029 20.4392C168.897 17.2295 172.191 15.3271 175.396 16.1885C178.606 17.0515 180.512 20.3621 179.651 23.5829C178.819 26.6977 175.705 28.5878 172.597 27.9283C170.7 27.9997 168.341 27.7927 165.799 27.2893C165.797 28.2693 165.651 29.344 165.337 30.5184C165.06 31.5553 164.652 32.6245 164.144 33.6846C163.775 32.8931 163.163 32.2769 162.428 32.0793C160.371 31.5265 158.487 32.8389 158.005 34.6408C157.394 36.9278 158.269 38.936 160.154 39.5847Z" fill="#191847"/>
<path fill-rule="evenodd" clip-rule="evenodd" d="M126.488 113.705L148.535 189.914L158.904 247.134H169.312L158.923 113.705H126.488Z" fill="#BA8B72"/>
<path fill-rule="evenodd" clip-rule="evenodd" d="M116.574 113.705C118.112 153.295 117.505 174.889 117.161 178.486C116.817 182.083 114.862 206.173 101.543 248.341H112.368C130.007 207.888 136.165 183.798 138.188 178.486C140.211 173.174 146.186 151.58 154.909 113.705H116.574Z" fill="#D4A181"/>
<path fill-rule="evenodd" clip-rule="evenodd" d="M126.016 113.705C131.75 139.929 141.669 181.789 155.771 239.285H170.993C172.118 180.27 167.335 141.429 159.052 113.705H126.016Z" fill="#69A1AC"/>
<path fill-rule="evenodd" clip-rule="evenodd" d="M116.492 113.705C117.999 153.295 114.094 192.299 102 239.901H118.242C135.913 200.052 148.579 161.24 157.235 113.705H116.492Z" fill="#89C5CC"/>
<path fill-rule="evenodd" clip-rule="evenodd" d="M100 256.188L100.597 246.528C104.094 247.554 108.474 247.152 113.738 245.321C119.397 249.342 126.521 252.088 135.11 253.558V253.558C135.766 253.671 136.206 254.295 136.094 254.952C136.087 254.994 136.078 255.037 136.066 255.078L135.24 258H113.738H101.195L100 256.188Z" fill="#191847"/>
<path fill-rule="evenodd" clip-rule="evenodd" d="M156.578 256.188L157.175 246.528C160.672 247.554 165.053 247.152 170.316 245.321C175.975 249.342 183.099 252.088 191.689 253.558V253.558C192.344 253.671 192.784 254.295 192.673 254.952C192.665 254.994 192.656 255.037 192.644 255.078L191.818 258H170.316H157.773L156.578 256.188Z" fill="#191847"/>
<path fill-rule="evenodd" clip-rule="evenodd" d="M169.553 79.7638L192.113 72.0996C196.25 68.6293 200.177 66.0604 203.894 64.3929C204.983 64.1474 206.803 64.2041 204.624 66.8649C202.445 69.5258 200.273 72.423 200.959 73.4827C201.644 74.5424 203.975 73.6438 204.718 75.3344C205.213 76.4615 201.332 77.4172 193.074 78.2014L175.712 89.2875L169.553 79.7638ZM200.097 94.9999L210.01 91.6184C212.128 87.0026 214.072 84.8355 215.841 85.1171C217.307 84.7244 213.872 90.423 216.534 90.3469C219.195 90.2708 226.285 86.703 227.198 87.8436C228.549 89.5309 226.366 93.5922 224.31 95.4409C220.468 98.8961 217.63 99.808 210.894 100.468C207.372 100.813 203.411 102.053 199.013 104.188L200.097 94.9999Z" fill="#D4A181"/>
<path fill-rule="evenodd" clip-rule="evenodd" d="M159.98 75.473C167.199 76.6713 177.077 76.8442 188.477 72.1291L190.921 81.8491C182.611 87.639 171.65 91.6648 162.998 89.8819C156.18 88.4768 154.139 79.5428 159.98 75.473Z" fill="#2026A2"/>
<path fill-rule="evenodd" clip-rule="evenodd" d="M167.141 91.6354C174.455 94.9024 187.68 94.9146 206.817 91.6719C209.654 101.731 210.557 108.705 209.526 112.593C192.656 117.955 178.782 119.222 167.832 117.531C167.038 124.085 165.164 130.124 161.525 135.301C154.045 145.943 124.076 129.561 112.993 129.781C110.126 106.741 124.657 100.154 127.125 86.1729C129.828 70.8619 146.228 49.4595 148.032 49.7785L164.477 52.6875C163.329 64.5428 165.631 78.2393 167.141 91.6354Z" fill="#1F28CF"/>
</svg>
