<svg width="471" height="314" viewBox="0 0 471 314" fill="none" xmlns="http://www.w3.org/2000/svg">
<path d="M469.548 263.102C469.548 266.28 468.063 269.477 465.041 272.672C462.015 275.872 457.501 279.007 451.603 282.023C439.809 288.056 422.678 293.517 401.426 298.115C358.938 307.307 300.194 313 235.274 313C170.354 313 111.61 307.307 69.1215 298.115C47.8693 293.517 30.7381 288.056 18.9444 282.023C13.046 279.007 8.5329 275.872 5.50642 272.672C2.4843 269.477 1 266.28 1 263.102C1 259.754 1.79085 257.004 3.36843 254.714C4.95154 252.417 7.38005 250.506 10.7813 248.936C17.6229 245.776 28.1797 244.086 42.9586 243.271C60.9129 242.281 84.846 242.589 115.461 242.983C135.216 243.236 157.753 243.526 183.261 243.526C206.107 243.526 229.788 243.294 253.306 243.062C296.712 242.636 339.564 242.215 375.602 243.272C403.384 244.087 427.044 245.779 443.742 249.01C452.099 250.626 458.633 252.615 463.054 255.025C467.495 257.446 469.548 260.14 469.548 263.102Z" fill="#F2F2F2" stroke="black" stroke-width="2"/>
<path d="M115.415 74.9008L115.518 74.4186L115.198 74.043C112.129 70.4372 110.125 66.1073 110.461 61.3165C110.702 57.8773 112.061 55.5822 113.951 54.1156C115.869 52.6273 118.431 51.9193 121.168 51.8708C123.902 51.8224 126.734 52.4347 129.11 53.4995C131.506 54.5729 133.322 56.0521 134.179 57.6496C136.053 61.1459 136.939 67.528 136.677 73.2886C136.547 76.15 136.136 78.7713 135.469 80.7282C135.135 81.7072 134.751 82.4778 134.337 83.0237C133.924 83.5685 133.526 83.8342 133.165 83.9272C132.417 84.1202 131.03 84.0019 129.155 83.4177C127.328 82.8487 125.186 81.8849 123.01 80.5724L121.209 79.4861L121.503 81.5685L124.147 100.291H109.971L115.415 74.9008Z" fill="#B28B67" stroke="black" stroke-width="2"/>
<path d="M127.774 50.6675C129.25 51.7012 129.802 52.2261 130.019 52.5204C130.123 52.6601 130.124 52.6734 130.148 52.8598C130.157 52.9307 130.169 53.0268 130.191 53.1644C130.285 53.7458 130.146 54.4306 129.751 55.224C129.358 56.015 128.746 56.841 128.01 57.664C126.739 59.0856 125.203 60.3848 124.016 61.3891C123.823 61.5522 123.64 61.7074 123.468 61.8542C121.77 63.3046 119.555 65.7133 117.649 68.0335C116.692 69.1989 115.802 70.3565 115.083 71.3782C114.476 72.241 113.961 73.048 113.641 73.6964C113.519 73.747 113.35 73.8099 113.136 73.8789C112.604 74.0505 111.853 74.2417 110.989 74.3734C109.23 74.6413 107.162 74.6384 105.518 73.8872C105.242 73.7613 104.963 73.6391 104.683 73.5165C102.576 72.5933 100.414 71.646 99.2172 68.9146C99.0039 68.4278 98.8489 67.6784 98.7793 66.7303C98.711 65.7986 98.7298 64.7422 98.8221 63.6831C99.0111 61.5142 99.49 59.5347 100.019 58.6164C100.531 57.7282 101.213 57.2267 102.128 56.7043C102.316 56.597 102.518 56.4869 102.731 56.3708C103.53 55.9358 104.484 55.4164 105.408 54.6484C106.075 54.0932 106.706 53.4438 107.369 52.7615C109.361 50.7115 111.641 48.3647 116.069 47.3853C120.428 46.4212 124.878 48.6379 127.774 50.6675Z" fill="#5C63AB" stroke="black" stroke-width="2"/>
<mask id="mask0_657_9941" style="mask-type:alpha" maskUnits="userSpaceOnUse" x="97" y="46" width="35" height="30">
<path d="M127.77 50.6665C129.246 51.7002 129.798 52.2251 130.016 52.5194C130.119 52.6591 130.12 52.6724 130.144 52.8588C130.153 52.9297 130.165 53.0258 130.187 53.1635C130.281 53.7448 130.142 54.4296 129.747 55.2231C129.354 56.014 128.742 56.84 128.007 57.663C126.735 59.0846 125.199 60.3838 124.012 61.3881C123.819 61.5512 123.636 61.7064 123.464 61.8532C121.766 63.3036 119.551 65.7123 117.645 68.0325C116.688 69.1979 115.798 70.3555 115.079 71.3772C114.472 72.2401 113.957 73.047 113.637 73.6954C113.516 73.7461 113.347 73.8089 113.133 73.8779C112.601 74.0495 111.849 74.2408 110.985 74.3724C109.226 74.6403 107.158 74.6374 105.514 73.8862C105.238 73.7603 104.959 73.6381 104.68 73.5155C102.572 72.5924 100.41 71.645 99.2133 68.9136C99 68.4268 98.8449 67.6774 98.7754 66.7293C98.7071 65.7977 98.7259 64.7412 98.8182 63.6821C99.0072 61.5132 99.4861 59.5338 100.015 58.6155C100.527 57.7272 101.21 57.2257 102.124 56.7033C102.312 56.5961 102.514 56.486 102.727 56.3698C103.526 55.9348 104.48 55.4155 105.404 54.6474C106.071 54.0922 106.702 53.4428 107.365 52.7605C109.357 50.7106 111.637 48.3637 116.065 47.3843C120.424 46.4202 124.874 48.6369 127.77 50.6665Z" fill="white" fill-opacity="0.2" stroke="black" stroke-width="2"/>
</mask>
<g mask="url(#mask0_657_9941)">
<path d="M104.424 56.0025C104.24 55.4036 104.07 54.791 103.914 54.1647L103.995 54.1137C104.122 54.7488 104.265 55.3783 104.424 56.0025ZM101.204 56.2519L101.507 56.1627C102.157 58.4876 103.102 60.7625 104.337 62.9877C102.979 60.8841 101.936 58.6387 101.204 56.2519Z" fill="black" fill-opacity="0.2" stroke="black" stroke-width="2"/>
</g>
<path d="M60.9814 272.279L79.6007 188.63H131.196L138.02 272.279H60.9814Z" fill="#C5CFD6" stroke="black" stroke-width="2"/>
<path d="M60.9814 272.279L79.6007 188.63H94.3056L103.891 272.279H60.9814Z" fill="black" fill-opacity="0.1" stroke="black" stroke-width="2"/>
<path d="M192.176 173.639L192.728 174.229L193.421 173.812C195.899 172.323 199.347 172.487 202.265 173.695C203.708 174.292 204.95 175.119 205.817 176.042C206.689 176.969 207.123 177.926 207.122 178.813C207.117 182.382 206.293 189.356 205.027 197.953C203.766 206.523 202.077 216.632 200.367 226.427C198.111 239.347 195.81 251.751 194.408 259.308C193.689 263.187 193.206 265.79 193.088 266.529C192.832 268.13 191.285 269.267 189.612 269.389C188.803 269.448 188.066 269.253 187.528 268.837C187.008 268.435 186.575 267.752 186.486 266.622C185.796 257.893 184.519 227.715 185.795 213.804C186.324 208.031 186.894 202.535 187.455 197.632L185.587 197.034C178.678 209.52 168.026 227.354 153.622 250.545L147.27 247.64C153.395 227.505 158.411 213.316 162.317 205.024C169.158 190.506 175.55 178.121 178.216 173.795C180.141 170.672 182.686 169.735 185.172 169.962C187.742 170.196 190.351 171.69 192.176 173.639Z" fill="#B28B67" stroke="black" stroke-width="2"/>
<path d="M163.696 241.896L147.957 236.177L174.798 172.543C176.245 170.255 178.296 169.242 180.59 169.068C182.952 168.889 185.6 169.605 188.055 170.858C190.506 172.109 192.675 173.85 194.081 175.606C195.539 177.426 195.966 178.975 195.599 179.979C193.1 186.822 185.446 201.422 178.175 214.912C176.043 218.868 173.954 222.712 172.043 226.226C170.701 228.695 169.447 231.001 168.329 233.07C166.977 235.571 165.825 237.722 164.963 239.378C164.434 240.395 164 241.252 163.696 241.896Z" fill="#1F28CF" stroke="black" stroke-width="2"/>
<path d="M169.361 263.724L169.441 263.835L169.548 263.92C170.698 264.835 172.153 265.955 173.911 267.28C174.247 267.533 174.421 267.767 174.505 267.965C174.586 268.154 174.613 268.372 174.553 268.655C174.44 269.181 174.031 269.896 173.161 270.804L140.842 252.13C141.545 250.276 142.152 248.921 142.661 248.04C143.076 247.32 144.059 246.272 145.747 244.881C145.754 244.875 145.761 244.87 145.769 244.865C145.94 244.743 146.176 244.783 146.298 244.952L146.299 244.955C147.469 246.603 148.59 247.818 149.671 248.443C150.952 249.183 152.781 249.612 155.05 249.811L155.438 249.844L155.747 249.607L157.912 247.938L169.361 263.724Z" fill="#E4E4E4" stroke="black" stroke-width="2"/>
<mask id="path-11-inside-1_657_9941" fill="white">
<path fill-rule="evenodd" clip-rule="evenodd" d="M183.74 263.196C182.968 265.258 182.582 266.802 182.582 267.826C182.582 269.072 182.789 270.889 183.204 273.279H222.131C223.143 269.932 222.559 268.125 220.379 267.858C218.2 267.591 216.389 267.35 214.948 267.135L196.855 259.063C196.507 258.908 196.099 259.064 195.943 259.413C195.941 259.419 195.938 259.425 195.936 259.431L194.773 262.254C192.755 263.196 191.116 263.667 189.854 263.667C188.829 263.667 187.414 263.253 185.608 262.424L185.608 262.424C184.915 262.106 184.096 262.411 183.778 263.105C183.764 263.134 183.752 263.165 183.74 263.196Z"/>
</mask>
<path fill-rule="evenodd" clip-rule="evenodd" d="M183.74 263.196C182.968 265.258 182.582 266.802 182.582 267.826C182.582 269.072 182.789 270.889 183.204 273.279H222.131C223.143 269.932 222.559 268.125 220.379 267.858C218.2 267.591 216.389 267.35 214.948 267.135L196.855 259.063C196.507 258.908 196.099 259.064 195.943 259.413C195.941 259.419 195.938 259.425 195.936 259.431L194.773 262.254C192.755 263.196 191.116 263.667 189.854 263.667C188.829 263.667 187.414 263.253 185.608 262.424L185.608 262.424C184.915 262.106 184.096 262.411 183.778 263.105C183.764 263.134 183.752 263.165 183.74 263.196Z" fill="#E4E4E4"/>
<path d="M183.204 273.279L181.233 273.621L181.521 275.279H183.204V273.279ZM222.131 273.279V275.279H223.616L224.046 273.857L222.131 273.279ZM220.379 267.858L220.136 269.843L220.379 267.858ZM214.948 267.135L214.133 268.962L214.382 269.073L214.653 269.113L214.948 267.135ZM196.855 259.063L196.04 260.889V260.889L196.855 259.063ZM195.943 259.413L194.117 258.599L194.117 258.599L195.943 259.413ZM195.936 259.431L197.785 260.192L197.785 260.192L195.936 259.431ZM194.773 262.254L195.619 264.066L196.325 263.736L196.622 263.016L194.773 262.254ZM185.608 262.424L183.746 261.694L183.055 263.454L184.774 264.242L185.608 262.424ZM185.608 262.424L187.47 263.155L188.161 261.395L186.442 260.607L185.608 262.424ZM183.778 263.105L185.596 263.937L183.778 263.105ZM183.74 263.196L181.867 262.494L181.867 262.494L183.74 263.196ZM181.867 262.494C181.085 264.584 180.582 266.416 180.582 267.826H184.582C184.582 267.187 184.851 265.933 185.613 263.897L181.867 262.494ZM180.582 267.826C180.582 269.248 180.814 271.203 181.233 273.621L185.175 272.937C184.765 270.575 184.582 268.895 184.582 267.826H180.582ZM183.204 275.279H222.131V271.279H183.204V275.279ZM224.046 273.857C224.584 272.077 224.84 270.298 224.355 268.798C224.095 267.995 223.624 267.279 222.915 266.747C222.224 266.228 221.422 265.971 220.622 265.873L220.136 269.843C220.28 269.861 220.376 269.887 220.434 269.908C220.491 269.929 220.513 269.945 220.514 269.947C220.515 269.947 220.512 269.945 220.513 269.945C220.514 269.947 220.53 269.97 220.549 270.028C220.648 270.336 220.69 271.133 220.217 272.7L224.046 273.857ZM220.622 265.873C218.453 265.607 216.661 265.369 215.243 265.157L214.653 269.113C216.118 269.332 217.947 269.575 220.136 269.843L220.622 265.873ZM215.763 265.309L197.67 257.236L196.04 260.889L214.133 268.962L215.763 265.309ZM197.67 257.236C196.312 256.631 194.721 257.242 194.117 258.599L197.77 260.226C197.476 260.886 196.702 261.185 196.04 260.889L197.67 257.236ZM194.117 258.599C194.106 258.622 194.096 258.646 194.086 258.669L197.785 260.192C197.78 260.204 197.776 260.215 197.77 260.226L194.117 258.599ZM194.086 258.669L192.923 261.492L196.622 263.016L197.785 260.192L194.086 258.669ZM193.927 260.442C192.001 261.341 190.679 261.667 189.854 261.667V265.667C191.552 265.667 193.509 265.051 195.619 264.066L193.927 260.442ZM189.854 261.667C189.277 261.667 188.187 261.407 186.442 260.607L184.774 264.242C186.641 265.099 188.382 265.667 189.854 265.667V261.667ZM187.47 263.155L187.47 263.155L183.746 261.694L183.746 261.694L187.47 263.155ZM186.442 260.607C184.744 259.827 182.737 260.574 181.96 262.272L185.596 263.937C185.454 264.248 185.086 264.385 184.774 264.242L186.442 260.607ZM181.96 262.272C181.926 262.345 181.895 262.419 181.867 262.494L185.613 263.897C185.608 263.91 185.603 263.924 185.596 263.937L181.96 262.272Z" fill="black" mask="url(#path-11-inside-1_657_9941)"/>
<path d="M209.033 183.784C209.033 192.865 206.872 208.071 204.692 221.589C203.902 226.485 203.112 231.143 202.426 235.193C202.167 236.723 201.922 238.166 201.698 239.503C201.289 241.937 200.947 244.02 200.707 245.622C200.567 246.557 200.457 247.359 200.39 247.98L183.659 247.993C184.988 229.428 185.892 215.402 186.37 205.922C186.613 201.093 186.746 197.431 186.768 194.945C186.779 193.706 186.763 192.738 186.716 192.057C186.693 191.721 186.66 191.421 186.61 191.181C186.586 191.064 186.549 190.922 186.49 190.784C186.45 190.692 186.311 190.378 185.961 190.197C185.796 190.112 185.636 190.085 185.574 190.075C185.487 190.06 185.399 190.052 185.318 190.047C185.155 190.037 184.957 190.035 184.737 190.038C184.294 190.044 183.693 190.071 182.963 190.116C181.499 190.205 179.465 190.366 177.025 190.576C173.595 190.871 169.34 191.264 164.703 191.692C162.743 191.873 160.714 192.06 158.65 192.249C144.723 193.523 129.233 194.866 122.116 194.866C112 194.866 105.019 191.688 100.44 185.706C95.9483 179.838 93.6505 171.124 93.2061 159.619H133.105C137.281 160.075 150.143 162.474 164.058 165.154C169.758 166.252 175.626 167.395 181.124 168.466C189.067 170.014 196.238 171.411 201.017 172.303C204.175 172.893 206.141 174.558 207.347 176.642C208.573 178.763 209.033 181.365 209.033 183.784Z" fill="#2B44FF" stroke="black" stroke-width="2"/>
<path d="M141.151 115.848L163.979 103.335L164.144 103.245L164.264 103.102C168.176 98.4526 172.005 94.8649 175.748 92.3143C175.952 92.2348 176.165 92.1728 176.348 92.1448C176.282 92.427 176.107 92.8857 175.718 93.5762C174.752 95.2928 173.768 97.1275 173.153 98.6825C172.847 99.4556 172.609 100.216 172.526 100.888C172.448 101.517 172.473 102.335 173.032 102.935C173.517 103.456 174.142 103.608 174.638 103.657C175 103.692 175.415 103.678 175.754 103.667C175.849 103.664 175.938 103.661 176.019 103.659C176.668 103.646 177.049 103.7 177.312 103.895C176.99 104.161 176.385 104.514 175.415 104.941C173.389 105.835 170.107 106.915 165.53 108.177L165.298 108.241L165.121 108.404L148.445 123.684L141.151 115.848ZM190.071 129.714C186.452 130.724 182.614 132.625 178.558 135.385L178.096 127.24L188.067 121.759L188.443 121.552L188.552 121.136C189.281 118.362 190.061 116.362 190.865 115.073C191.444 114.145 191.962 113.695 192.399 113.508C192.386 113.734 192.363 113.989 192.337 114.275C192.313 114.541 192.286 114.834 192.263 115.156C192.206 115.942 192.169 116.94 192.427 117.721C192.564 118.135 192.818 118.597 193.298 118.897C193.792 119.205 194.358 119.241 194.902 119.129C195.8 118.944 196.928 118.427 198.047 117.851C198.884 117.421 199.783 116.92 200.661 116.432C200.98 116.255 201.297 116.078 201.606 115.908C202.789 115.257 203.862 114.691 204.705 114.353C205.131 114.182 205.442 114.093 205.647 114.065C205.663 114.063 205.677 114.062 205.689 114.06C205.853 114.259 205.988 114.577 206.038 115.071C206.099 115.66 206.026 116.397 205.829 117.214C205.434 118.854 204.59 120.597 203.707 121.722C201.936 123.981 200.358 125.446 198.35 126.607C196.318 127.782 193.794 128.675 190.071 129.714ZM205.785 114.058C205.785 114.058 205.781 114.058 205.774 114.057C205.782 114.057 205.785 114.058 205.785 114.058Z" fill="#997659" stroke="black" stroke-width="2"/>
<path d="M134.166 127.298C127.157 127.101 123.57 118.791 128.3 113.659C136.55 113.518 147.379 111.744 158.945 104.673L162.88 113.457C154.768 121.328 143.697 127.566 134.166 127.298Z" fill="#2026A2" stroke="black" stroke-width="2"/>
<path d="M138.21 129.729L138.372 130.278L138.927 130.416C143.577 131.577 149.698 131.454 157.227 130.132C164.567 128.844 173.317 126.403 183.471 122.823C185.86 127.835 187.611 132.129 188.733 135.713C189.823 139.192 190.299 141.935 190.232 143.987C172.553 153.157 157.456 157.215 145.069 157.485L144.037 157.507L144.092 158.538C144.489 165.968 143.582 172.969 140.59 179.336C139.215 182.262 136.12 183.913 131.676 184.657C127.249 185.398 121.738 185.19 115.941 184.627C112.42 184.285 108.861 183.821 105.403 183.369C103.15 183.075 100.939 182.787 98.8108 182.541C93.9679 181.983 89.5377 181.647 86.2956 182.086C82.8012 170.097 84.562 161.618 87.2492 154.151C87.9367 152.24 88.6847 150.397 89.429 148.563L89.4447 148.524C90.1915 146.683 90.9351 144.85 91.5915 143.001C92.9063 139.298 93.8908 135.487 93.8939 131.267C93.9004 122.58 97.4058 111.439 101.225 102.399C103.129 97.8957 105.092 93.9543 106.703 91.15C107.51 89.7444 108.216 88.6455 108.771 87.9094C109.052 87.5381 109.273 87.2872 109.432 87.1392C109.449 87.1226 109.465 87.1082 109.48 87.0957H127.511C128.502 97.9676 132.097 109.689 135.676 121.36C136.534 124.157 137.39 126.951 138.21 129.729Z" fill="#1F28CF" stroke="black" stroke-width="2"/>
<path d="M347.491 34.3623L347.385 33.8753L347.71 33.4978C350.689 30.0396 352.627 25.8935 352.302 21.3109C352.069 18.0226 350.755 15.8299 348.927 14.4276C347.07 13.003 344.586 12.3235 341.928 12.277C339.275 12.2305 336.526 12.8179 334.221 13.8391C331.895 14.8692 330.138 16.2862 329.312 17.8093C327.497 21.1557 326.637 27.2735 326.891 32.8011C327.017 35.5459 327.415 38.0579 328.062 39.9311C328.385 40.8681 328.756 41.6035 329.155 42.123C329.552 42.6411 329.934 42.8921 330.278 42.9799C331 43.164 332.343 43.0516 334.165 42.4909C335.938 41.9451 338.017 41.0204 340.129 39.761L341.927 38.6888L341.631 40.7613L339.069 58.6924H352.768L347.491 34.3623Z" fill="#915B3C" stroke="black" stroke-width="2"/>
<mask id="path-18-inside-2_657_9941" fill="white">
<path fill-rule="evenodd" clip-rule="evenodd" d="M321.306 7.40227C321.639 6.2436 322.536 5.25153 323.743 4.95721C324.036 4.88582 324.339 4.85698 324.64 4.86901C324.748 4.87327 324.779 4.90411 324.829 4.82933C324.867 4.77388 324.868 4.63841 324.883 4.57325C324.931 4.37062 324.991 4.17052 325.065 3.9756C325.318 3.31078 325.743 2.7224 326.255 2.22676C327.212 1.29951 328.506 0.659562 329.851 0.543786C330.586 0.480453 331.317 0.598711 332.013 0.83549C332.373 0.958061 332.722 1.11069 333.062 1.27943C333.164 1.33022 333.497 1.57897 333.6 1.56286C333.713 1.54509 333.941 1.26606 334.033 1.19602C335.174 0.330223 336.583 -0.0101792 338.004 0.000231126C339.608 0.0119481 341.152 0.0912223 342.49 1.05837C342.773 1.26314 343.042 1.48733 343.299 1.72337C343.434 1.84764 343.565 1.97657 343.69 2.11086C343.766 2.19187 343.839 2.27472 343.91 2.35979C344.03 2.50418 344.01 2.55161 344.178 2.45087C344.822 2.06399 345.568 1.88305 346.319 1.97439C346.765 2.02866 347.199 2.16116 347.612 2.33557C347.752 2.39494 348.077 2.63176 348.226 2.63407C348.375 2.63633 348.695 2.4168 348.848 2.36101C349.673 2.05954 350.563 1.98523 351.431 2.12453C352.326 2.26827 353.205 2.62152 353.964 3.10967C354.328 3.34449 354.647 3.60466 354.902 3.95382C355.012 4.10457 355.112 4.26404 355.237 4.40381C355.311 4.48566 355.456 4.56963 355.495 4.67321C355.471 4.61119 356.474 4.22893 356.568 4.20449C357.072 4.0743 357.585 4.1007 358.079 4.26133C359.007 4.56341 359.805 5.24081 360.461 5.93534C360.797 6.29207 361.092 6.6864 361.342 7.10651C361.462 7.30775 361.572 7.51473 361.672 7.72612C361.721 7.82852 361.753 7.95663 361.817 8.04888C361.9 8.16775 361.955 8.17002 362.105 8.22185C362.864 8.48502 363.557 8.93049 364.084 9.53241C364.617 10.1414 364.963 10.8913 365.108 11.6811C365.117 11.7276 365.122 11.9204 365.149 11.9455C365.187 11.9802 365.34 11.9649 365.397 11.9716C365.597 11.9948 365.796 12.0293 365.992 12.0753C366.353 12.1598 366.705 12.2843 367.038 12.4471C368.334 13.0818 369.262 14.2717 369.716 15.6106C370.192 17.0156 370.183 18.6254 369.614 20.0043C369.522 20.227 369.413 20.4431 369.284 20.6476C369.205 20.7732 369.18 20.7735 369.231 20.9052C369.288 21.0517 369.393 21.1941 369.46 21.3373C369.682 21.8045 369.836 22.3001 369.934 22.8062C370.094 23.6365 370.174 24.509 370.016 25.3455C369.942 25.734 369.814 26.1137 369.619 26.4597C369.52 26.6361 369.403 26.8034 369.272 26.9582C369.204 27.0385 369.131 27.1153 369.055 27.1888C369.012 27.2308 368.955 27.2676 368.918 27.3145C368.828 27.4289 368.809 27.3348 368.856 27.5028C368.921 27.7376 369.068 27.9693 369.158 28.1978C369.251 28.4332 369.334 28.6719 369.411 28.913C369.567 29.4011 369.698 29.898 369.78 30.4035C369.938 31.374 369.91 32.4081 369.446 33.2988C369.248 33.6798 368.963 34.0141 368.618 34.274C368.449 34.4012 368.266 34.5109 368.074 34.6009C367.975 34.6473 367.849 34.6671 367.804 34.7615C367.756 34.863 367.828 35.0645 367.844 35.178C367.987 36.1651 368.058 37.2015 367.762 38.1688C367.488 39.0598 366.887 39.8465 366.106 40.3673C364.591 41.3776 362.549 41.3206 360.957 40.5118C360.542 40.3009 360.154 40.0392 359.807 39.7304C358.925 40.9047 357.111 40.8675 355.822 40.5329C354.216 40.1161 352.928 39.0116 352.185 37.5604C351.17 38.7828 349.04 38.3862 348.336 37.0601C348.164 36.7356 348.062 36.3779 348.011 36.0159C347.985 35.8256 348.002 35.6336 347.982 35.4447C347.957 35.2041 347.794 34.9703 347.701 34.7375C347.519 34.2845 347.406 33.8166 347.401 33.328C347.398 33.0729 347.431 32.8242 347.456 32.5712C347.478 32.3434 347.414 32.1311 347.378 31.9063C347.789 31.9733 348.291 31.8635 348.679 31.7454C349.06 31.6295 349.416 31.3242 349.685 31.0453C350.309 30.3979 350.69 29.5492 350.951 28.7045C351.523 26.8505 351.289 24.6261 349.404 23.6086C348.525 23.1346 345.895 23.1362 344.849 23.3705C343.749 23.6168 342.502 26.0173 342.441 26.2429C342.403 26.3826 342.422 26.5554 342.292 26.6484C342.007 26.853 341.537 26.498 341.327 26.3228C340.964 26.0203 340.705 25.6179 340.481 25.2101C339.993 24.3215 339.599 23.3686 339.321 22.3958C339.107 21.6458 338.97 20.8725 338.69 20.1416C338.411 19.4144 337.971 18.7644 337.288 18.3524C336.545 17.9043 335.692 17.6682 334.876 17.3866C334.067 17.1075 333.272 16.7663 332.645 16.1741C332.507 16.0438 332.373 15.9054 332.262 15.7521C332.175 15.6311 332.088 15.3993 331.955 15.3226C331.747 15.2032 331.444 15.5137 331.265 15.6264C330.38 16.1826 329.641 16.9584 329.045 17.8059C328.453 18.6487 327.967 19.4597 327.572 20.4008C327.279 21.0989 327.096 21.9928 326.58 22.5648C326.35 22.8202 324.64 22.9748 324.086 22.7518C323.532 22.5288 322.912 21.9497 322.726 21.5869C322.535 21.2155 322.49 20.8075 322.571 20.4008C322.619 20.1616 322.717 19.9382 322.77 19.7032C322.815 19.5059 322.856 19.3193 322.953 19.1385C323.137 18.7959 323.452 18.5496 323.831 18.4466C323.436 18.0867 323.109 17.6561 322.883 17.1748C322.648 16.6748 322.449 16.0667 322.392 15.5179C322.346 15.0721 322.417 14.6103 322.664 14.2272C322.923 13.8253 323.381 13.5631 323.778 13.3125C323.172 12.8435 322.653 12.2732 322.227 11.6418C321.398 10.4139 320.885 8.86615 321.306 7.40227Z"/>
</mask>
<path fill-rule="evenodd" clip-rule="evenodd" d="M321.306 7.40227C321.639 6.2436 322.536 5.25153 323.743 4.95721C324.036 4.88582 324.339 4.85698 324.64 4.86901C324.748 4.87327 324.779 4.90411 324.829 4.82933C324.867 4.77388 324.868 4.63841 324.883 4.57325C324.931 4.37062 324.991 4.17052 325.065 3.9756C325.318 3.31078 325.743 2.7224 326.255 2.22676C327.212 1.29951 328.506 0.659562 329.851 0.543786C330.586 0.480453 331.317 0.598711 332.013 0.83549C332.373 0.958061 332.722 1.11069 333.062 1.27943C333.164 1.33022 333.497 1.57897 333.6 1.56286C333.713 1.54509 333.941 1.26606 334.033 1.19602C335.174 0.330223 336.583 -0.0101792 338.004 0.000231126C339.608 0.0119481 341.152 0.0912223 342.49 1.05837C342.773 1.26314 343.042 1.48733 343.299 1.72337C343.434 1.84764 343.565 1.97657 343.69 2.11086C343.766 2.19187 343.839 2.27472 343.91 2.35979C344.03 2.50418 344.01 2.55161 344.178 2.45087C344.822 2.06399 345.568 1.88305 346.319 1.97439C346.765 2.02866 347.199 2.16116 347.612 2.33557C347.752 2.39494 348.077 2.63176 348.226 2.63407C348.375 2.63633 348.695 2.4168 348.848 2.36101C349.673 2.05954 350.563 1.98523 351.431 2.12453C352.326 2.26827 353.205 2.62152 353.964 3.10967C354.328 3.34449 354.647 3.60466 354.902 3.95382C355.012 4.10457 355.112 4.26404 355.237 4.40381C355.311 4.48566 355.456 4.56963 355.495 4.67321C355.471 4.61119 356.474 4.22893 356.568 4.20449C357.072 4.0743 357.585 4.1007 358.079 4.26133C359.007 4.56341 359.805 5.24081 360.461 5.93534C360.797 6.29207 361.092 6.6864 361.342 7.10651C361.462 7.30775 361.572 7.51473 361.672 7.72612C361.721 7.82852 361.753 7.95663 361.817 8.04888C361.9 8.16775 361.955 8.17002 362.105 8.22185C362.864 8.48502 363.557 8.93049 364.084 9.53241C364.617 10.1414 364.963 10.8913 365.108 11.6811C365.117 11.7276 365.122 11.9204 365.149 11.9455C365.187 11.9802 365.34 11.9649 365.397 11.9716C365.597 11.9948 365.796 12.0293 365.992 12.0753C366.353 12.1598 366.705 12.2843 367.038 12.4471C368.334 13.0818 369.262 14.2717 369.716 15.6106C370.192 17.0156 370.183 18.6254 369.614 20.0043C369.522 20.227 369.413 20.4431 369.284 20.6476C369.205 20.7732 369.18 20.7735 369.231 20.9052C369.288 21.0517 369.393 21.1941 369.46 21.3373C369.682 21.8045 369.836 22.3001 369.934 22.8062C370.094 23.6365 370.174 24.509 370.016 25.3455C369.942 25.734 369.814 26.1137 369.619 26.4597C369.52 26.6361 369.403 26.8034 369.272 26.9582C369.204 27.0385 369.131 27.1153 369.055 27.1888C369.012 27.2308 368.955 27.2676 368.918 27.3145C368.828 27.4289 368.809 27.3348 368.856 27.5028C368.921 27.7376 369.068 27.9693 369.158 28.1978C369.251 28.4332 369.334 28.6719 369.411 28.913C369.567 29.4011 369.698 29.898 369.78 30.4035C369.938 31.374 369.91 32.4081 369.446 33.2988C369.248 33.6798 368.963 34.0141 368.618 34.274C368.449 34.4012 368.266 34.5109 368.074 34.6009C367.975 34.6473 367.849 34.6671 367.804 34.7615C367.756 34.863 367.828 35.0645 367.844 35.178C367.987 36.1651 368.058 37.2015 367.762 38.1688C367.488 39.0598 366.887 39.8465 366.106 40.3673C364.591 41.3776 362.549 41.3206 360.957 40.5118C360.542 40.3009 360.154 40.0392 359.807 39.7304C358.925 40.9047 357.111 40.8675 355.822 40.5329C354.216 40.1161 352.928 39.0116 352.185 37.5604C351.17 38.7828 349.04 38.3862 348.336 37.0601C348.164 36.7356 348.062 36.3779 348.011 36.0159C347.985 35.8256 348.002 35.6336 347.982 35.4447C347.957 35.2041 347.794 34.9703 347.701 34.7375C347.519 34.2845 347.406 33.8166 347.401 33.328C347.398 33.0729 347.431 32.8242 347.456 32.5712C347.478 32.3434 347.414 32.1311 347.378 31.9063C347.789 31.9733 348.291 31.8635 348.679 31.7454C349.06 31.6295 349.416 31.3242 349.685 31.0453C350.309 30.3979 350.69 29.5492 350.951 28.7045C351.523 26.8505 351.289 24.6261 349.404 23.6086C348.525 23.1346 345.895 23.1362 344.849 23.3705C343.749 23.6168 342.502 26.0173 342.441 26.2429C342.403 26.3826 342.422 26.5554 342.292 26.6484C342.007 26.853 341.537 26.498 341.327 26.3228C340.964 26.0203 340.705 25.6179 340.481 25.2101C339.993 24.3215 339.599 23.3686 339.321 22.3958C339.107 21.6458 338.97 20.8725 338.69 20.1416C338.411 19.4144 337.971 18.7644 337.288 18.3524C336.545 17.9043 335.692 17.6682 334.876 17.3866C334.067 17.1075 333.272 16.7663 332.645 16.1741C332.507 16.0438 332.373 15.9054 332.262 15.7521C332.175 15.6311 332.088 15.3993 331.955 15.3226C331.747 15.2032 331.444 15.5137 331.265 15.6264C330.38 16.1826 329.641 16.9584 329.045 17.8059C328.453 18.6487 327.967 19.4597 327.572 20.4008C327.279 21.0989 327.096 21.9928 326.58 22.5648C326.35 22.8202 324.64 22.9748 324.086 22.7518C323.532 22.5288 322.912 21.9497 322.726 21.5869C322.535 21.2155 322.49 20.8075 322.571 20.4008C322.619 20.1616 322.717 19.9382 322.77 19.7032C322.815 19.5059 322.856 19.3193 322.953 19.1385C323.137 18.7959 323.452 18.5496 323.831 18.4466C323.436 18.0867 323.109 17.6561 322.883 17.1748C322.648 16.6748 322.449 16.0667 322.392 15.5179C322.346 15.0721 322.417 14.6103 322.664 14.2272C322.923 13.8253 323.381 13.5631 323.778 13.3125C323.172 12.8435 322.653 12.2732 322.227 11.6418C321.398 10.4139 320.885 8.86615 321.306 7.40227Z" fill="#191847" stroke="black" stroke-width="4" mask="url(#path-18-inside-2_657_9941)"/>
<path d="M326.199 198.788L357.919 115.761H323.523L292.885 260.341H303.835L326.193 198.804L326.196 198.796L326.199 198.788Z" fill="#1F28CF" stroke="black" stroke-width="2"/>
<path d="M367.339 184.914C367.26 184.739 367.219 184.544 367.193 184.406C367.164 184.245 367.138 184.057 367.115 183.848C367.069 183.43 367.029 182.884 366.993 182.23C366.92 180.918 366.861 179.121 366.813 176.937C366.716 172.567 366.66 166.613 366.619 159.818C366.593 155.585 366.573 151.025 366.552 146.315C366.508 136.238 366.461 125.474 366.349 115.761H325.161C329.106 129.443 334.7 147.309 339.72 162.517C342.308 170.36 344.742 177.489 346.717 182.97C347.705 185.711 348.576 188.033 349.292 189.824C350.019 191.639 350.561 192.842 350.892 193.392C351.062 193.675 351.509 194.181 352.345 194.941C353.158 195.678 354.267 196.593 355.683 197.689C358.512 199.88 362.519 202.758 367.71 206.329C377.938 213.362 392.722 223.053 412.07 235.402L417.735 225.873C401.418 213.031 389.081 203.227 380.728 196.463C376.493 193.034 373.276 190.382 371.082 188.51C369.986 187.574 369.137 186.826 368.541 186.27C368.243 185.993 367.999 185.754 367.815 185.558C367.723 185.46 367.638 185.363 367.565 185.271C367.502 185.192 367.408 185.065 367.339 184.914Z" fill="#2B44FF" stroke="black" stroke-width="2"/>
<path d="M425.385 236.419L425.643 236.633L428.627 233.114L419.011 225.874L410.781 235.576C410.047 243.499 407.429 252.299 402.965 261.966L403.663 262.545L419.344 244.059L423.879 236.666L424.488 235.674L425.385 236.419Z" fill="#191847" stroke="black" stroke-width="2"/>
<path d="M300.026 271.955V272.282H304.681L304.107 260.354H291.292C284.684 264.891 276.187 268.564 265.83 271.395V272.282H290.233L298.875 270.967L300.026 270.792V271.955Z" fill="#191847" stroke="black" stroke-width="2"/>
<path d="M300.299 89.2422L275.102 85.8424L274.917 85.8174L274.754 85.7275C269.556 82.8673 264.805 80.9434 260.497 79.9317C260.299 79.931 260.1 79.9465 259.932 79.9793C260.097 80.2099 260.412 80.5537 260.98 81.0222C262.464 82.2457 264.005 83.5717 265.113 84.7721C265.664 85.3689 266.15 85.9787 266.463 86.5642C266.755 87.1113 267.023 87.8741 266.719 88.6267C266.454 89.2792 265.931 89.6389 265.494 89.8567C265.174 90.0161 264.789 90.1493 264.475 90.2575C264.387 90.2878 264.305 90.3162 264.232 90.3427C263.657 90.5497 263.337 90.7241 263.164 90.9701C263.553 91.0936 264.218 91.1985 265.225 91.2474C267.387 91.3525 270.761 91.1874 275.382 90.7364L275.621 90.7131L275.844 90.8007L296.404 98.8638L300.299 89.2422ZM397.312 133.862C394.161 124.865 389.774 112.073 384.154 95.4875L371.731 95.5337C387.412 130.442 395.608 148.766 396.297 150.455C397.221 152.719 396.671 155.428 395.857 157.774C395.249 159.525 394.424 161.256 393.765 162.637C393.724 162.724 393.683 162.809 393.643 162.892C393.966 162.903 394.207 162.818 394.413 162.705C394.857 162.462 395.23 162.049 395.761 161.46C395.829 161.385 395.9 161.306 395.974 161.224C396.56 160.58 397.329 159.777 398.424 159.387C399.573 158.979 400.901 159.076 402.508 159.816C403.734 160.38 404.892 161.047 405.98 161.672C406.105 161.744 406.229 161.815 406.352 161.886C407.566 162.582 408.69 163.206 409.821 163.643C410.94 164.076 412.031 164.312 413.163 164.249C414.291 164.187 415.524 163.825 416.922 162.972C417.022 162.911 417.237 162.656 417.263 162.321C417.281 162.084 417.215 161.64 416.469 161.134C413.97 159.439 410.932 157.117 408.394 154.974C407.125 153.902 405.971 152.866 405.066 151.968C404.198 151.106 403.456 150.272 403.133 149.622C402.442 148.236 400.491 142.938 397.312 133.862Z" fill="#997659" stroke="black" stroke-width="2"/>
<path d="M319.261 79.4704C310.616 86.0532 298.142 88.7214 281.229 86.243L276.924 116.863C292.525 118.691 307.046 116.482 318.394 109.766C329.955 102.922 338.322 91.3422 341.178 74.3069C342.61 65.7627 343.743 56.947 343.672 49.4889L334.054 50.1227C332.515 62.5834 327.886 72.904 319.261 79.4704Z" fill="#AFB9C5" stroke="black" stroke-width="2"/>
<path d="M367.767 141.606H400.805C392.795 100.491 376.205 68.6876 351.095 46.1064H350.486L333.908 49.8623C333.824 64.4322 331.451 76.4218 328.493 87.4291C327.286 91.9219 325.993 96.2143 324.72 100.442C322.918 106.427 321.155 112.283 319.728 118.392H365.513H366.429L366.509 119.304C367.146 126.548 367.548 133.982 367.767 141.606Z" fill="#C5CFD6" stroke="black" stroke-width="2"/>
<path d="M364.414 118.392C363.411 107.434 361.856 96.9358 359.561 86.893C359.949 99.965 359.184 110.475 357.238 118.392H364.414Z" fill="black" fill-opacity="0.1" stroke="black" stroke-width="2"/>
</svg>
