<svg width="980" height="523" viewBox="0 0 980 523" fill="none" xmlns="http://www.w3.org/2000/svg">
<rect x="1" y="1" width="978" height="521" rx="29" fill="#F2F2F2"/>
<rect x="20" y="60" width="940" height="443" rx="10" fill="white"/>
<rect x="1" y="1" width="978" height="521" rx="29" stroke="black" stroke-width="2"/>
<mask id="path-3-inside-1_721_2860" fill="white">
<path fill-rule="evenodd" clip-rule="evenodd" d="M24 0C10.7452 0 0 10.7452 0 24V40H980V24C980 10.7452 969.255 0 956 0H24ZM35 27C38.866 27 42 23.866 42 20C42 16.134 38.866 13 35 13C31.134 13 28 16.134 28 20C28 23.866 31.134 27 35 27ZM65 20C65 23.866 61.866 27 58 27C54.134 27 51 23.866 51 20C51 16.134 54.134 13 58 13C61.866 13 65 16.134 65 20ZM81 27C84.866 27 88 23.866 88 20C88 16.134 84.866 13 81 13C77.134 13 74 16.134 74 20C74 23.866 77.134 27 81 27Z"/>
</mask>
<path fill-rule="evenodd" clip-rule="evenodd" d="M24 0C10.7452 0 0 10.7452 0 24V40H980V24C980 10.7452 969.255 0 956 0H24ZM35 27C38.866 27 42 23.866 42 20C42 16.134 38.866 13 35 13C31.134 13 28 16.134 28 20C28 23.866 31.134 27 35 27ZM65 20C65 23.866 61.866 27 58 27C54.134 27 51 23.866 51 20C51 16.134 54.134 13 58 13C61.866 13 65 16.134 65 20ZM81 27C84.866 27 88 23.866 88 20C88 16.134 84.866 13 81 13C77.134 13 74 16.134 74 20C74 23.866 77.134 27 81 27Z" fill="#C5CFD6"/>
<path d="M0 40H-2V42H0V40ZM980 40V42H982V40H980ZM2 24C2 11.8497 11.8497 2 24 2V-2C9.6406 -2 -2 9.6406 -2 24H2ZM2 40V24H-2V40H2ZM980 38H0V42H980V38ZM978 24V40H982V24H978ZM956 2C968.15 2 978 11.8497 978 24H982C982 9.6406 970.359 -2 956 -2V2ZM24 2H956V-2H24V2ZM40 20C40 22.7614 37.7614 25 35 25V29C39.9706 29 44 24.9706 44 20H40ZM35 15C37.7614 15 40 17.2386 40 20H44C44 15.0294 39.9706 11 35 11V15ZM30 20C30 17.2386 32.2386 15 35 15V11C30.0294 11 26 15.0294 26 20H30ZM35 25C32.2386 25 30 22.7614 30 20H26C26 24.9706 30.0294 29 35 29V25ZM58 29C62.9706 29 67 24.9706 67 20H63C63 22.7614 60.7614 25 58 25V29ZM49 20C49 24.9706 53.0294 29 58 29V25C55.2386 25 53 22.7614 53 20H49ZM58 11C53.0294 11 49 15.0294 49 20H53C53 17.2386 55.2386 15 58 15V11ZM67 20C67 15.0294 62.9706 11 58 11V15C60.7614 15 63 17.2386 63 20H67ZM86 20C86 22.7614 83.7614 25 81 25V29C85.9706 29 90 24.9706 90 20H86ZM81 15C83.7614 15 86 17.2386 86 20H90C90 15.0294 85.9706 11 81 11V15ZM76 20C76 17.2386 78.2386 15 81 15V11C76.0294 11 72 15.0294 72 20H76ZM81 25C78.2386 25 76 22.7614 76 20H72C72 24.9706 76.0294 29 81 29V25Z" fill="black" mask="url(#path-3-inside-1_721_2860)"/>
</svg>
