<svg xmlns="http://www.w3.org/2000/svg" xmlns:xlink="http://www.w3.org/1999/xlink" width="980" height="318" fill="none" xmlns:v="https://vecta.io/nano"><path d="M980 235.376C980 273.117 760.62 318 490 318S0 273.117 0 235.376s376.301-25.471 646.92-25.471S980 197.635 980 235.376z" fill="#f2f2f2"/><g fill-rule="evenodd"><path d="M489.762 44.339c-2.744-3.175-4.6-7.068-4.288-11.43.899-12.568 18.641-9.809 22.09-3.467s3.034 22.432-1.427 23.568c-1.779.453-5.568-.654-9.424-2.945l2.415 16.887-14.295.005 4.929-22.617z" fill="#784931"/><path d="M501.924 22.537c-1.953-.587-4.788-.785-5.981-.65.679-1.603.949-3.389.73-5.128-.213-1.69-.978-3.128-1.686-4.635-.326-.695-.696-1.386-1.247-1.917a4.29 4.29 0 0 0-2.018-1.069c-.764-.174-1.562-.16-2.326-.001-.338.07-.642.223-.973.308-.34.087-.504-.123-.751-.333-.594-.507-1.465-.758-2.216-.847-.843-.1-1.718.025-2.522.299-.783.266-1.535.699-2.101 1.328a3.48 3.48 0 0 0-.63.951c-.061.145-.071.23-.217.283-.135.049-.294.05-.433.097-1.35.451-2.504 1.48-3.133 2.8-.367.77-.541 2.126-.494 3.646s1.438 5.485 2.739 6.931c1.162 1.291 2.869 2.142 4.517 2.514-1.094 1.233-1.823 2.774-2.362 4.342a21 21 0 0 0-1.082 5.273c-.128 1.712-.14 3.523.266 5.198.38 1.567 1.194 2.852 2.554 3.667.622.373 1.292.654 1.966.91.664.252 1.33.498 2.026.64 1.316.268 2.834.221 3.848-.812.366-.373.768-.841 1.035-1.296.096-.164.154-.271.037-.431-.139-.192-.365-.338-.544-.488-1.022-.854-1.655-1.995-1.814-3.35-.161-1.376.214-3.151 1.571-3.752 1.674-.742 3.518.108 5.006.901.633-2.201 1.932-4.183 3.968-5.194 2.253-1.118 4.838-1.249 7.153-2.208.603-.25 1.218-.534 1.662-1.043.186-.213.403-.489.478-.77.097-.369-.144-.679-.331-.967-.989-1.527-4.742-4.611-6.695-5.198zm-5.549 94.293l-21.592 75.099-15.753 55.353h-11.49l16.74-130.452h32.095z" fill="#191847"/><path d="M502.14 116.83c.499 38.707 2.202 59.819 2.726 63.336s8.453 25.888 23.786 67.116H516.75l-32.69-67.116c-2.273-5.194-9.288-26.306-19.854-63.336h37.934z" fill="#2f3676"/><g fill="#191847"><use xlink:href="#B"/><use xlink:href="#B" x="-69.082"/></g><path d="M447.825 101.187l-20.338 11.754c-5.268.832-9.728 2.086-13.38 3.763-.89.647-2.027 2.028 1.367 2.125s6.962.35 7.307 1.537-1.836 2.332-1.059 3.966c.519 1.088 3.748-1.167 9.686-6.766l19.517-5.719-3.1-10.66zm81.31 7.634l-10.653-.328 11.199 41.15c1.261 3.428-1.83 8.472-3.172 11.194 3.997 1.942 3.794-4.734 8.833-2.194 4.599 2.319 8.019 6.346 13.532 3.238.678-.382 1.458-1.883-.258-3.139-4.277-3.128-10.408-8.556-11.201-10.299-1.083-2.377-3.843-15.584-8.28-39.622z" fill="#b28b67"/><path d="M493.146 59.275l-6.063-3.237c-12.559 20.064-29.284 38.675-54.169 52.508l3.752 10.134c21.098-7.798 40.734-13.285 51.045-28.731 3.46-5.184 4.446-23.923 5.435-30.674z" fill="#c5cfd6"/><path d="M504.496 123.934c-18.782-1.299-33.295-3.845-43.54-7.639-1.269-.469-1.09-2.68-.221-4.049 13.546-21.32 23.596-40.233 26.425-56.196 1.584 1.173 4.603 1.836 9.057 1.991 8.764 18.499 10.788 38.316 8.279 65.893z" fill="#323337"/><path d="M499.351 57.172l-4.867-.854c-2.303 6.401-21.715 95.141-37.93 122.439l59.709 10.475c3.451-27.008-1.059-60.969-6.633-89.704 7.678 9.891 13.162 25.332 16.451 46.321l11.688-.88c-2.028-36.937-14.504-66.013-37.428-87.229l-.1-.412-.43-.076-.423-.385-.037.304z" fill="#dde3e9"/><path d="M830.967 79.37c2.85-3.36 4.78-7.479 4.457-12.093-.929-13.296-19.359-10.371-22.944-3.661s-3.159 23.733 1.474 24.933c1.848.478 5.784-.693 9.791-3.118l-2.515 17.866h14.848l-5.111-23.926z" fill="#b28b67"/><path d="M841.904 62.85c.479-.477.741-1.159.967-1.805l.62-2.05c.311-1.398.314-3.005-.678-4.09-.796-.87-1.991-1.26-3.093-1.345-.735-.056-1.489.047-2.193.279s-1.301.69-1.978.976c-.026-1.506-.283-3.082-1.044-4.368-.732-1.237-1.899-1.931-3.228-2.115-1.365-.189-2.712.132-3.933.795l-.899.537c-.243.165-.495.364-.78.431-.317.075-.475-.109-.681-.342-.242-.273-.515-.513-.803-.726-1.276-.942-2.949-1.329-4.427-.764-.681.26-1.343.702-1.805 1.31-.412.542-.705 1.403-1.274 1.781-.241.16-.411-.052-.631-.209l-.978-.726c-.469-.323-.976-.564-1.52-.69-.796-.185-1.896-.142-2.123.905-.086.393-.02.814.007 1.21l.125 1.631.158 1.216c.042.216.171.618.079.834-.115.27-.647.117-.874.126-.449.019-.899.098-1.314.29-.322.149-.66.369-.796.739-.083.227-.061.461-.022.695.048.281-.006.43-.042.713-.602-.298-2.69-.96-2.953.124-.088.361.112.769.264 1.074.266.534.616 1.022.973 1.488.745.971 1.635 1.809 2.592 2.526a1.71 1.71 0 0 0-.443 2.858c.429.389 1.005.475 1.546.45.198-.009.483-.085.639-.051.084.019.173.09.289.098.764.052 1.625-.132 2.371-.302 1.33-.303 2.588-.936 3.616-1.899.264-.247.481-.389.836-.386.311.003.616.089.927.097.822.021 1.563-.382 2.327-.651.046 1.036.34 2.176.762 3.108.344.76 1.062.87 1.768.937 2.257.213 4.523-.025 6.783-.022l-6.617 1.286c-.981.264-.232.928.187 1.388.69.757 1.203 1.696 1.559 2.684 1.07-1.401 2.962-2.324 4.638-1.894 1.852.475 3.156 2.99 1.972 4.798-.688 1.05-1.929 1.455-2.962 1.906.806.841 1 2.084 1.486 3.131.239.516.575 1.1 1.11 1.28.197.067.43.072.586.234.193.201.239.425.486.597.986.688 2.526.635 3.399-.263.79-.812.585-2.097-.075-2.921 1.05-.44 2.964-1.005 2.546-2.649 2.277-.152 7.803-3.859 4.748-6.568 1.676-.952 3.217-3.277 2.14-5.327-.83-1.578-2.758-2.284-4.34-2.368z" fill="#191847"/><path d="M862.911 180.958h-47.795L808.853 258H880l-17.089-77.042z" fill="#c5cfd6"/><path d="M862.911 180.958h-14.7L839.413 258H880l-17.089-77.042z" fill="#000" fill-opacity=".1"/><path d="M760.628 167.761c-5.096-3.073-13.645.875-13.64 5.27.018 13.149 11.967 75.123 12.591 79.041s7.308 4.952 7.697.012c.619-7.859 1.77-35.069.619-47.663l-1.491-14.566c6.27 11.372 15.968 27.653 29.092 48.844l7.125-3.269c-5.595-18.512-10.183-31.581-13.763-39.207-6.131-13.058-11.88-24.24-14.299-28.179-3.806-6.196-10.431-4.034-13.931-.283z" fill="#b28b67"/><path d="M802.114 225.148l-24.454-58.177c-5.858-9.464-22.284 1.926-20.286 7.415 4.536 12.462 27.603 52.806 28.955 56.519l15.785-5.757z" fill="#1f28cf"/><path d="M803.475 231.761c1.523 1.26 2.514 2.288 2.972 3.086.558.97 1.211 2.48 1.96 4.528l-30.22 17.521c-2.284-2.152-2.64-3.822-1.067-5.011l3.893-3.008 10.43-14.432c.201-.278.588-.339.864-.138l2.181 1.687c1.989-.175 3.472-.546 4.452-1.113.795-.462 1.708-1.421 2.739-2.88h0c.396-.559 1.168-.691 1.725-.293l.071.053zm-34.63 17.169c.692 1.856 1.038 3.244 1.038 4.165 0 1.121-.186 2.756-.558 4.905h-34.894c-.906-3.01-.383-4.636 1.571-4.876l4.868-.65 16.219-7.261c.312-.14.678.001.817.315l1.049 2.555c1.809.848 3.278 1.272 4.409 1.272.919 0 2.188-.373 3.806-1.118h0c.621-.286 1.356-.012 1.641.612l.034.081z" fill="#e4e4e4"/><path d="M745.276 177.5c0 16.506 7.805 55.008 7.81 58.643l16.794.013c-2.458-34.355-3.329-51.718-2.615-52.088 1.073-.555 43.957 4.3 56.819 4.3 18.547 0 26.219-11.746 26.842-33.504h-36.741c-7.48.804-46.5 8.708-60.991 11.425-6.204 1.163-7.918 6.664-7.918 11.211z" fill="#2b44ff"/><path d="M808.461 116.158l-21.474-11.811c-3.571-4.259-7.089-7.566-10.555-9.922-1.059-.444-2.911-.713-1.179 2.374s3.415 6.412 2.533 7.364-3.083-.378-4.135 1.202c-.702 1.054 3.057 2.718 11.277 4.993l15.603 14.347 7.93-8.547zm-33.632 9.965l-9.433-5.204c-1.323-5.057-2.905-7.602-4.746-7.633-1.414-.661 1.049 5.73-1.632 5.175s-9.223-5.44-10.35-4.448c-1.668 1.468-.181 5.975 1.571 8.217 3.275 4.19 5.986 5.623 12.688 7.5 3.504.981 7.292 2.947 11.365 5.899l.537-9.506z" fill="#997659"/><path d="M818.915 113.526c-7.522-.08-17.552-1.675-28.254-8.497l-4.203 9.412c7.382 7.358 17.762 13.403 26.838 13.147 7.152-.202 10.808-8.89 5.619-14.062z" fill="#2026a2"/><path d="M808.786 128.621c-7.985 2-21.375-.358-40.171-7.075-4.662 9.686-6.817 16.591-6.465 20.716 16.123 8.459 29.943 12.23 41.329 12.479-.362 6.784.46 13.24 3.222 19.139 5.679 12.126 38.932.896 50.113 3.106 7.002-22.836-6.536-32.116-6.547-46.728-.012-16.001-12.806-40.631-14.688-40.631h-17.166c-.947 12.221-5.714 25.689-9.627 38.994z" fill="#1f28cf"/><path d="M155.087 39.164c-1.836-3.874-2.617-8.227-1.157-12.477 4.207-12.246 20.792-4.845 22.478 2.359s-2.982 23.075-7.637 23.03c-1.856-.018-5.261-2.112-8.417-5.4l-2.117 17.405-13.952-3.75 10.802-21.167z" fill="#d4a181"/><path d="M160.154 39.585c-2.62 2.867-5.683 4.732-8.073 4.09-4.541-1.221-6.143-8.178-4.394-14.726.062-.23.127-.457.197-.682-5.687 2.015-11.129 7.538-17.485 5.83-8.647-2.324-7.407-20.743 4.673-17.495 8.216 2.208 11.936 4.496 14.944 7.209 1.206-1.758 2.69-3.11 4.275-3.906.401-.265.963-.471 1.655-.616.427-.104.857-.167 1.287-.186 2.307-.21 5.495.062 8.925.856.641.148 1.266.309 1.871.481.868-3.21 4.162-5.112 7.367-4.251a6.04 6.04 0 0 1 4.255 7.394 6.02 6.02 0 0 1-7.054 4.345c-1.897.071-4.256-.136-6.798-.639-.002.98-.148 2.055-.462 3.229-.277 1.037-.685 2.106-1.193 3.166-.369-.792-.981-1.408-1.716-1.605-2.057-.553-3.941.76-4.423 2.561-.611 2.287.264 4.295 2.149 4.944z" fill="#191847"/><path d="M126.488 113.705l22.047 76.209 10.369 57.22h10.408l-10.389-133.429h-32.435z" fill="#ba8b72"/><path d="M116.574 113.705c1.538 39.59.931 61.184.587 64.781s-2.299 27.687-15.618 69.855h10.825c17.639-40.453 23.797-64.543 25.82-69.855s7.998-26.906 16.721-64.781h-38.335z" fill="#d4a181"/><path d="M126.016 113.705c5.734 26.224 15.653 68.084 29.755 125.58h15.222c1.125-59.015-3.658-97.856-11.941-125.58h-33.036z" fill="#69a1ac"/><path d="M116.492 113.705c1.507 39.59-2.398 78.594-14.492 126.196h16.242c17.671-39.849 30.337-78.661 38.993-126.196h-40.743z" fill="#89c5cc"/><path d="M100 256.188l.597-9.66c3.497 1.026 7.877.624 13.141-1.207 5.659 4.021 12.783 6.767 21.372 8.237h0a1.21 1.21 0 0 1 .984 1.394 1.09 1.09 0 0 1-.028.126L135.24 258h-21.502-12.543L100 256.188zm56.578 0l.597-9.66c3.497 1.026 7.878.624 13.141-1.207 5.659 4.021 12.783 6.767 21.373 8.237h0a1.21 1.21 0 0 1 .984 1.394c-.008.042-.017.085-.029.126l-.826 2.922h-21.502-12.543l-1.195-1.812z" fill="#191847"/><path d="M169.553 79.764l22.56-7.664c4.137-3.47 8.064-6.039 11.781-7.707 1.089-.245 2.909-.189.73 2.472s-4.351 5.558-3.665 6.618 3.016.161 3.759 1.852c.495 1.127-3.386 2.083-11.644 2.867l-17.362 11.086-6.159-9.524zM200.097 95l9.913-3.382c2.118-4.616 4.062-6.783 5.831-6.501 1.466-.393-1.969 5.306.693 5.23s9.751-3.644 10.664-2.503c1.351 1.687-.832 5.749-2.888 7.597-3.842 3.455-6.68 4.367-13.416 5.027-3.522.345-7.483 1.585-11.881 3.72L200.097 95z" fill="#d4a181"/><path d="M159.98 75.473c7.219 1.198 17.097 1.371 28.497-3.344l2.444 9.72c-8.31 5.79-19.271 9.816-27.923 8.033-6.818-1.405-8.859-10.339-3.018-14.409z" fill="#2026a2"/><path d="M167.141 91.635c7.314 3.267 20.539 3.279 39.676.036 2.837 10.059 3.74 17.033 2.709 20.921-16.87 5.362-30.744 6.629-41.694 4.938-.794 6.554-2.668 12.593-6.307 17.77-7.48 10.642-37.449-5.74-48.532-5.52-2.867-23.04 11.664-29.627 14.132-43.608 2.703-15.311 19.103-36.713 20.907-36.394l16.445 2.909c-1.148 11.855 1.154 25.552 2.664 38.948z" fill="#1f28cf"/></g><defs ><path id="B" d="M529.723 257.999l-.596-12.444h-12.506c-5.931 4.148-13.673 7.506-23.227 10.074v2.37h22.631l7.742-1.185v1.185h5.956z"/></defs></svg>