<svg xmlns="http://www.w3.org/2000/svg" width="471" height="314" fill="none" xmlns:v="https://vecta.io/nano"><style><![CDATA[.B{stroke:#000}.C{stroke-width:2}.D{fill-rule:evenodd}.E{fill:#1f28cf}]]></style><g class="B C"><path d="M469.548 263.102c0 3.178-1.485 6.375-4.507 9.57s-7.54 6.335-13.438 9.351c-11.794 6.033-28.925 11.494-50.177 16.092C358.938 307.307 300.194 313 235.274 313s-123.664-5.693-166.152-14.885c-21.252-4.598-38.383-10.059-50.177-16.092-5.898-3.016-10.412-6.151-13.438-9.351S1 266.28 1 263.102c0-3.348.791-6.098 2.368-8.388 1.583-2.297 4.012-4.208 7.413-5.778 6.842-3.16 17.398-4.85 32.177-5.665 17.954-.99 41.887-.682 72.502-.288l67.8.543 70.045-.464 122.296.21c27.782.815 51.442 2.507 68.14 5.738 8.357 1.616 14.891 3.605 19.312 6.015 4.441 2.421 6.494 5.115 6.494 8.077z" fill="#f2f2f2"/><path d="M115.415 74.901l.103-.482-.32-.376c-3.069-3.606-5.073-7.936-4.737-12.727.241-3.439 1.6-5.734 3.49-7.201 1.918-1.488 4.48-2.196 7.217-2.245s5.566.564 7.942 1.629c2.396 1.073 4.212 2.553 5.069 4.15 1.874 3.496 2.76 9.878 2.498 15.639-.13 2.861-.541 5.483-1.208 7.44-.334.979-.718 1.75-1.132 2.296s-.811.81-1.172.903c-.748.193-2.135.075-4.01-.51-1.827-.569-3.969-1.533-6.145-2.845l-1.801-1.086.294 2.082 2.644 18.722h-14.176l5.444-25.39z" fill="#b28b67"/><path d="M127.774 50.668c1.476 1.034 2.028 1.559 2.245 1.853.104.14.105.153.129.339l.043.305c.094.581-.045 1.266-.44 2.06s-1.005 1.617-1.741 2.44c-1.271 1.422-2.807 2.721-3.994 3.725l-.548.465c-1.698 1.45-3.913 3.859-5.819 6.179l-2.566 3.345c-.607.863-1.122 1.67-1.442 2.318l-.505.183c-.532.172-1.283.363-2.147.495-1.759.268-3.827.265-5.471-.486l-.835-.371c-2.107-.923-4.269-1.87-5.466-4.602-.213-.487-.368-1.236-.438-2.184-.068-.932-.05-1.988.043-3.047.189-2.169.668-4.148 1.197-5.067.512-.888 1.194-1.39 2.109-1.912l.603-.334c.799-.435 1.753-.954 2.677-1.722.667-.555 1.298-1.205 1.961-1.887 1.992-2.05 4.272-4.397 8.7-5.376 4.359-.964 8.809 1.253 11.705 3.282z" fill="#5c63ab"/></g><mask id="A" maskUnits="userSpaceOnUse" x="97" y="46" width="35" height="30" mask-type="alpha"><path d="M127.77 50.667c1.476 1.034 2.028 1.559 2.246 1.853.103.14.104.153.128.339l.043.305c.094.581-.045 1.266-.44 2.06s-1.005 1.617-1.74 2.44c-1.272 1.422-2.808 2.721-3.995 3.725l-.548.465c-1.698 1.45-3.913 3.859-5.819 6.179l-2.566 3.345c-.607.863-1.122 1.67-1.442 2.318l-.504.182c-.532.172-1.284.363-2.148.495-1.759.268-3.827.265-5.471-.486l-.834-.371c-2.108-.923-4.27-1.871-5.467-4.602-.213-.487-.368-1.236-.438-2.184-.068-.932-.05-1.988.043-3.047.189-2.169.668-4.148 1.197-5.067.512-.888 1.195-1.39 2.109-1.912l.603-.334c.799-.435 1.753-.954 2.677-1.722.667-.555 1.298-1.205 1.961-1.887 1.992-2.05 4.272-4.397 8.7-5.376 4.359-.964 8.809 1.253 11.705 3.282z" fill="#fff" fill-opacity=".2" class="B C"/></mask><g mask="url(#A)" class="B C"><path d="M104.424 56.003l-.51-1.838.081-.051.429 1.889zm-3.22.249l.303-.089c.65 2.325 1.595 4.6 2.83 6.825-1.358-2.104-2.401-4.349-3.133-6.736z" fill="#000" fill-opacity=".2"/></g><g class="B C"><path d="M60.981 272.279l18.619-83.649h51.595l6.824 83.649H60.981z" fill="#c5cfd6"/><path d="M60.981 272.279l18.619-83.649h14.705l9.585 83.649h-42.91z" fill="#000" fill-opacity=".1"/><path d="M192.176 173.639l.552.59.693-.417c2.478-1.489 5.926-1.325 8.844-.117 1.443.597 2.685 1.424 3.552 2.347s1.306 1.884 1.305 2.771c-.005 3.569-.829 10.543-2.095 19.14-1.261 8.57-2.95 18.679-4.66 28.474l-5.959 32.881-1.32 7.221c-.256 1.601-1.803 2.738-3.476 2.86-.809.059-1.546-.136-2.084-.552-.52-.402-.953-1.085-1.042-2.215-.69-8.729-1.967-38.907-.691-52.818l1.66-16.172-1.868-.598c-6.909 12.486-17.561 30.32-31.965 53.511l-6.352-2.905c6.125-20.135 11.141-34.324 15.047-42.616 6.841-14.518 13.233-26.903 15.899-31.229 1.925-3.123 4.47-4.06 6.956-3.833 2.57.234 5.179 1.728 7.004 3.677z" fill="#b28b67"/><path d="M163.696 241.896l-15.739-5.719 26.841-63.634c1.447-2.288 3.498-3.301 5.792-3.475 2.362-.179 5.01.537 7.465 1.79s4.62 2.992 6.026 4.748c1.458 1.82 1.885 3.369 1.518 4.373-2.499 6.843-10.153 21.443-17.424 34.933l-6.132 11.314-3.714 6.844-3.366 6.308-1.267 2.518z" class="E"/><path d="M169.361 263.724l.08.111.107.085 4.363 3.36c.336.253.51.487.594.685.081.189.108.407.048.69-.113.526-.522 1.241-1.392 2.149l-32.319-18.674c.703-1.854 1.31-3.209 1.819-4.09.415-.72 1.398-1.768 3.086-3.159.007-.006.014-.011.022-.016a.38.38 0 0 1 .529.087l.001.003c1.17 1.648 2.291 2.863 3.372 3.488 1.281.74 3.11 1.169 5.379 1.368l.388.033.309-.237 2.165-1.669 11.449 15.786z" fill="#e4e4e4"/></g><mask id="B" fill="#fff"><path d="M183.74 263.196c-.772 2.062-1.158 3.606-1.158 4.63 0 1.246.207 3.063.622 5.453h38.927c1.012-3.347.428-5.154-1.752-5.421l-5.431-.723-18.093-8.072a.69.69 0 0 0-.912.35l-1.17 2.841c-2.018.942-3.657 1.413-4.919 1.413-1.025 0-2.44-.414-4.246-1.243h0a1.38 1.38 0 0 0-1.83.681 1.24 1.24 0 0 0-.038.091z" class="D"/></mask><path d="M183.74 263.196c-.772 2.062-1.158 3.606-1.158 4.63 0 1.246.207 3.063.622 5.453h38.927c1.012-3.347.428-5.154-1.752-5.421l-5.431-.723-18.093-8.072a.69.69 0 0 0-.912.35l-1.17 2.841c-2.018.942-3.657 1.413-4.919 1.413-1.025 0-2.44-.414-4.246-1.243h0a1.38 1.38 0 0 0-1.83.681 1.24 1.24 0 0 0-.038.091z" fill="#e4e4e4" class="D"/><path d="M183.204 273.279l-1.971.342.288 1.658h1.683v-2zm38.927 0v2h1.485l.43-1.422-1.915-.578zm-1.752-5.421l-.243 1.985.243-1.985zm-5.431-.723l-.815 1.827.249.111.271.04.295-1.978zm-18.093-8.072l-.815 1.826h0l.815-1.826zm-.912.35l-1.826-.814h0l1.826.814zm-.007.018l1.849.761h0l-1.849-.761zm-1.163 2.823l.846 1.812.706-.33.297-.72-1.849-.762zm-9.165.17l-1.862-.73-.691 1.76 1.719.788.834-1.818zm0 0l1.862.731.691-1.76-1.719-.788-.834 1.817zm-1.83.681l1.818.832-1.818-.832zm-.038.091l-1.873-.702h0l1.873.702zm-1.873-.702c-.782 2.09-1.285 3.922-1.285 5.332h4c0-.639.269-1.893 1.031-3.929l-3.746-1.403zm-1.285 5.332c0 1.422.232 3.377.651 5.795l3.942-.684c-.41-2.362-.593-4.042-.593-5.111h-4zm2.622 7.453h38.927v-4h-38.927v4zm40.842-1.422c.538-1.78.794-3.559.309-5.059-.26-.803-.731-1.519-1.44-2.051-.691-.519-1.493-.776-2.293-.874l-.486 3.97a1.4 1.4 0 0 1 .298.065.27.27 0 0 1 .08.039s.016.023.035.081c.099.308.141 1.105-.332 2.672l3.829 1.157zm-3.424-7.984l-5.379-.716-.59 3.956 5.483.73.486-3.97zm-4.859-.564l-18.093-8.073-1.63 3.653 18.093 8.073 1.63-3.653zm-18.093-8.073a2.69 2.69 0 0 0-3.553 1.363l3.653 1.627a1.31 1.31 0 0 1-1.73.663l1.63-3.653zm-3.553 1.363l-.031.07 3.699 1.523-.015.034-3.653-1.627zm-.031.07l-1.163 2.823 3.699 1.524 1.163-2.824-3.699-1.523zm-.159 1.773c-1.926.899-3.248 1.225-4.073 1.225v4c1.698 0 3.655-.616 5.765-1.601l-1.692-3.624zm-4.073 1.225c-.577 0-1.667-.26-3.412-1.06l-1.668 3.635c1.867.857 3.608 1.425 5.08 1.425v-4zm-2.384 1.488h0l-3.724-1.461h0l3.724 1.461zm-1.028-2.548a3.38 3.38 0 0 0-4.482 1.665l3.636 1.665a.62.62 0 0 1-.822.305l1.668-3.635zm-4.482 1.665l-.093.222 3.746 1.403-.017.04-3.636-1.665z" fill="#000" mask="url(#B)"/><g class="B C"><path d="M209.033 183.784c0 9.081-2.161 24.287-4.341 37.805l-2.266 13.604-.728 4.31-.991 6.119c-.14.935-.25 1.737-.317 2.358l-16.731.013 2.711-42.071.398-10.977c.011-1.239-.005-2.207-.052-2.888-.023-.336-.056-.636-.106-.876a2.09 2.09 0 0 0-.12-.397c-.04-.092-.179-.406-.529-.587-.165-.085-.325-.112-.387-.122a2.38 2.38 0 0 0-.256-.028c-.163-.01-.361-.012-.581-.009-.443.006-1.044.033-1.774.078-1.464.089-3.498.25-5.938.46l-12.322 1.116-6.053.557c-13.927 1.274-29.417 2.617-36.534 2.617-10.116 0-17.097-3.178-21.676-9.16-4.492-5.868-6.79-14.582-7.234-26.087h39.899c4.176.456 17.038 2.855 30.953 5.535l17.066 3.312 19.893 3.837c3.158.59 5.124 2.255 6.33 4.339 1.226 2.121 1.686 4.723 1.686 7.142z" fill="#2b44ff"/><path d="M141.151 115.848l22.828-12.513.165-.09.12-.143c3.912-4.649 7.741-8.237 11.484-10.788.204-.079.417-.142.6-.169-.066.282-.241.741-.63 1.431-.966 1.717-1.95 3.551-2.565 5.106-.306.773-.544 1.533-.627 2.206-.078.629-.053 1.447.506 2.047.485.521 1.11.673 1.606.722.362.035.777.021 1.116.01l.265-.008c.649-.013 1.03.041 1.293.236-.322.266-.927.619-1.897 1.046-2.026.894-5.308 1.974-9.885 3.236l-.232.064-.177.163-16.676 15.28-7.294-7.836zm48.92 13.866c-3.619 1.01-7.457 2.911-11.513 5.671l-.462-8.145 9.971-5.481.376-.207.109-.416c.729-2.774 1.509-4.774 2.313-6.063.579-.928 1.097-1.378 1.534-1.565-.013.226-.036.481-.062.767l-.074.881c-.057.786-.094 1.784.164 2.565.137.414.391.876.871 1.176.494.308 1.06.344 1.604.232.898-.185 2.026-.702 3.145-1.278.837-.43 1.736-.931 2.614-1.419l.945-.524c1.183-.651 2.256-1.217 3.099-1.555.426-.171.737-.26.942-.288.016-.002.03-.003.042-.005.164.199.299.517.349 1.011.061.589-.012 1.326-.209 2.143-.395 1.64-1.239 3.383-2.122 4.508-1.771 2.259-3.349 3.724-5.357 4.885-2.032 1.175-4.556 2.068-8.279 3.107zm15.714-15.656z" fill="#997659"/><path d="M134.166 127.298c-7.009-.197-10.596-8.507-5.866-13.639 8.25-.141 19.079-1.915 30.645-8.986l3.935 8.784c-8.112 7.871-19.183 14.109-28.714 13.841z" fill="#2026a2"/><path d="M138.21 129.729l.162.549.555.138c4.65 1.161 10.771 1.038 18.3-.284 7.34-1.288 16.09-3.729 26.244-7.309 2.389 5.012 4.14 9.306 5.262 12.89 1.09 3.479 1.566 6.222 1.499 8.274-17.679 9.17-32.776 13.228-45.163 13.498l-1.032.022.055 1.031c.397 7.43-.51 14.431-3.502 20.798-1.375 2.926-4.47 4.577-8.914 5.321-4.427.741-9.938.533-15.735-.03-3.521-.342-7.08-.806-10.538-1.258l-6.592-.828c-4.843-.558-9.273-.894-12.515-.455-3.494-11.989-1.734-20.468.954-27.935.688-1.911 1.436-3.754 2.18-5.588l.016-.039 2.147-5.523c1.315-3.703 2.299-7.514 2.302-11.734.007-8.687 3.512-19.828 7.331-28.868 1.904-4.503 3.867-8.445 5.478-11.249.807-1.406 1.513-2.505 2.068-3.241.281-.371.502-.622.661-.77.017-.017.033-.031.048-.044h18.031c.991 10.872 4.586 22.593 8.165 34.264l2.534 8.369z" class="E"/><path d="M347.491 34.362l-.106-.487.325-.378c2.979-3.458 4.917-7.604 4.592-12.187-.233-3.288-1.547-5.481-3.375-6.883-1.857-1.425-4.341-2.104-6.999-2.151s-5.402.541-7.707 1.562c-2.326 1.03-4.083 2.447-4.909 3.97-1.815 3.346-2.675 9.464-2.421 14.992.126 2.745.524 5.257 1.171 7.13.323.937.694 1.672 1.093 2.192s.779.769 1.123.857c.722.184 2.065.072 3.887-.489 1.773-.546 3.852-1.471 5.964-2.73l1.798-1.072-.296 2.072-2.562 17.931h13.699l-5.277-24.33z" fill="#915b3c"/></g><mask id="C" fill="#fff"><path d="M321.306 7.402c.333-1.159 1.23-2.151 2.437-2.445.293-.071.596-.1.897-.088.108.004.139.035.189-.04.038-.055.039-.191.054-.256.048-.203.108-.403.182-.598.253-.665.678-1.253 1.19-1.749.957-.927 2.251-1.567 3.596-1.683.735-.063 1.466.055 2.162.292.36.123.709.275 1.049.444.102.051.435.3.538.283.113-.018.341-.297.433-.367C335.174.33 336.583-.01 338.004 0c1.604.012 3.148.091 4.486 1.058.283.205.552.429.809.665l.391.387.22.249c.12.144.1.192.268.091.644-.387 1.39-.568 2.141-.476.446.054.88.187 1.293.361.14.059.465.296.614.298s.469-.217.622-.273c.825-.301 1.715-.376 2.583-.236a6.72 6.72 0 0 1 2.533.985c.364.235.683.495.938.844l.335.45c.074.082.219.166.258.269-.024-.062.979-.444 1.073-.469.504-.13 1.017-.104 1.511.057.928.302 1.726.979 2.382 1.674a6.72 6.72 0 0 1 .881 1.171l.33.62c.049.102.081.231.145.323.083.119.138.121.288.173.759.263 1.452.709 1.979 1.311.533.609.879 1.359 1.024 2.149.009.046.014.239.041.264.038.035.191.019.248.026.2.023.399.058.595.104.361.085.713.209 1.046.372 1.296.635 2.224 1.825 2.678 3.163.476 1.405.467 3.015-.102 4.394-.092.223-.201.439-.33.643-.079.126-.104.126-.053.258.057.146.162.289.229.432.222.467.376.963.474 1.469.16.83.24 1.703.082 2.539a3.66 3.66 0 0 1-.397 1.114c-.099.176-.216.344-.347.498a3.19 3.19 0 0 1-.217.231c-.043.042-.1.079-.137.126-.09.114-.109.02-.062.188.065.235.212.466.302.695l.253.715c.156.488.287.985.369 1.491.158.97.13 2.005-.334 2.895a2.9 2.9 0 0 1-.828.975 3.08 3.08 0 0 1-.544.327c-.099.046-.225.066-.27.161-.048.102.024.303.04.416.143.987.214 2.024-.082 2.991a4.14 4.14 0 0 1-1.656 2.199c-1.515 1.01-3.557.953-5.149.145a5.43 5.43 0 0 1-1.15-.781c-.882 1.174-2.696 1.137-3.985.802-1.606-.417-2.894-1.521-3.637-2.972-1.015 1.222-3.145.826-3.849-.5a3.17 3.17 0 0 1-.325-1.044c-.026-.19-.009-.382-.029-.571-.025-.241-.188-.474-.281-.707-.182-.453-.295-.921-.3-1.409-.003-.255.03-.504.055-.757.022-.228-.042-.44-.078-.665.411.067.913-.043 1.301-.161.381-.116.737-.421 1.006-.7.624-.647 1.005-1.496 1.266-2.341.572-1.854.338-4.078-1.547-5.096-.879-.474-3.509-.472-4.555-.238-1.1.246-2.347 2.647-2.408 2.872-.038.14-.019.313-.149.406-.285.205-.755-.15-.965-.326-.363-.303-.622-.705-.846-1.113-.488-.889-.882-1.841-1.16-2.814l-.631-2.254c-.279-.727-.719-1.377-1.402-1.789-.743-.448-1.596-.684-2.412-.966-.809-.279-1.604-.62-2.231-1.213a3.06 3.06 0 0 1-.383-.422c-.087-.121-.174-.353-.307-.43-.208-.119-.511.191-.69.304-.885.556-1.624 1.332-2.22 2.18s-1.078 1.654-1.473 2.595c-.293.698-.476 1.592-.992 2.164-.23.255-1.94.41-2.494.187s-1.174-.802-1.36-1.165a1.79 1.79 0 0 1-.155-1.186c.048-.239.146-.463.199-.698.045-.197.086-.384.183-.565.184-.343.499-.589.878-.692a4.07 4.07 0 0 1-.948-1.272c-.235-.5-.434-1.108-.491-1.657-.046-.446.025-.908.272-1.291.259-.402.717-.664 1.114-.915-.606-.469-1.125-1.039-1.551-1.671-.829-1.228-1.342-2.776-.921-4.24z" class="D"/></mask><g class="B"><path d="M321.306 7.402c.333-1.159 1.23-2.151 2.437-2.445.293-.071.596-.1.897-.088.108.004.139.035.189-.04.038-.055.039-.191.054-.256.048-.203.108-.403.182-.598.253-.665.678-1.253 1.19-1.749.957-.927 2.251-1.567 3.596-1.683.735-.063 1.466.055 2.162.292.36.123.709.275 1.049.444.102.051.435.3.538.283.113-.018.341-.297.433-.367C335.174.33 336.583-.01 338.004 0c1.604.012 3.148.091 4.486 1.058.283.205.552.429.809.665l.391.387.22.249c.12.144.1.192.268.091.644-.387 1.39-.568 2.141-.476.446.054.88.187 1.293.361.14.059.465.296.614.298s.469-.217.622-.273c.825-.301 1.715-.376 2.583-.236a6.72 6.72 0 0 1 2.533.985c.364.235.683.495.938.844l.335.45c.074.082.219.166.258.269-.024-.062.979-.444 1.073-.469.504-.13 1.017-.104 1.511.057.928.302 1.726.979 2.382 1.674a6.72 6.72 0 0 1 .881 1.171l.33.62c.049.102.081.231.145.323.083.119.138.121.288.173.759.263 1.452.709 1.979 1.311.533.609.879 1.359 1.024 2.149.009.046.014.239.041.264.038.035.191.019.248.026.2.023.399.058.595.104.361.085.713.209 1.046.372 1.296.635 2.224 1.825 2.678 3.163.476 1.405.467 3.015-.102 4.394-.092.223-.201.439-.33.643-.079.126-.104.126-.053.258.057.146.162.289.229.432.222.467.376.963.474 1.469.16.83.24 1.703.082 2.539a3.66 3.66 0 0 1-.397 1.114c-.099.176-.216.344-.347.498a3.19 3.19 0 0 1-.217.231c-.043.042-.1.079-.137.126-.09.114-.109.02-.062.188.065.235.212.466.302.695l.253.715c.156.488.287.985.369 1.491.158.97.13 2.005-.334 2.895a2.9 2.9 0 0 1-.828.975 3.08 3.08 0 0 1-.544.327c-.099.046-.225.066-.27.161-.048.102.024.303.04.416.143.987.214 2.024-.082 2.991a4.14 4.14 0 0 1-1.656 2.199c-1.515 1.01-3.557.953-5.149.145a5.43 5.43 0 0 1-1.15-.781c-.882 1.174-2.696 1.137-3.985.802-1.606-.417-2.894-1.521-3.637-2.972-1.015 1.222-3.145.826-3.849-.5a3.17 3.17 0 0 1-.325-1.044c-.026-.19-.009-.382-.029-.571-.025-.241-.188-.474-.281-.707-.182-.453-.295-.921-.3-1.409-.003-.255.03-.504.055-.757.022-.228-.042-.44-.078-.665.411.067.913-.043 1.301-.161.381-.116.737-.421 1.006-.7.624-.647 1.005-1.496 1.266-2.341.572-1.854.338-4.078-1.547-5.096-.879-.474-3.509-.472-4.555-.238-1.1.246-2.347 2.647-2.408 2.872-.038.14-.019.313-.149.406-.285.205-.755-.15-.965-.326-.363-.303-.622-.705-.846-1.113-.488-.889-.882-1.841-1.16-2.814l-.631-2.254c-.279-.727-.719-1.377-1.402-1.789-.743-.448-1.596-.684-2.412-.966-.809-.279-1.604-.62-2.231-1.213a3.06 3.06 0 0 1-.383-.422c-.087-.121-.174-.353-.307-.43-.208-.119-.511.191-.69.304-.885.556-1.624 1.332-2.22 2.18s-1.078 1.654-1.473 2.595c-.293.698-.476 1.592-.992 2.164-.23.255-1.94.41-2.494.187s-1.174-.802-1.36-1.165a1.79 1.79 0 0 1-.155-1.186c.048-.239.146-.463.199-.698.045-.197.086-.384.183-.565.184-.343.499-.589.878-.692a4.07 4.07 0 0 1-.948-1.272c-.235-.5-.434-1.108-.491-1.657-.046-.446.025-.908.272-1.291.259-.402.717-.664 1.114-.915-.606-.469-1.125-1.039-1.551-1.671-.829-1.228-1.342-2.776-.921-4.24z" fill="#191847" stroke-width="4" mask="url(#C)" class="D"/><g class="C"><path d="M326.199 198.788l31.72-83.027h-34.396l-30.638 144.58h10.95l22.358-61.537.003-.008.003-.008z" class="E"/><path d="M367.339 184.914c-.079-.175-.12-.37-.146-.508l-.078-.558-.122-1.618-.18-5.293-.194-17.119-.067-13.503-.203-30.554h-41.188c3.945 13.682 9.539 31.548 14.559 46.756l6.997 20.453 2.575 6.854c.727 1.815 1.269 3.018 1.6 3.568.17.283.617.789 1.453 1.549.813.737 1.922 1.652 3.338 2.748 2.829 2.191 6.836 5.069 12.027 8.64 10.228 7.033 25.012 16.724 44.36 29.073l5.665-9.529-37.007-29.41-9.646-7.953c-1.096-.936-1.945-1.684-2.541-2.24-.298-.277-.542-.516-.726-.712-.092-.098-.177-.195-.25-.287-.063-.079-.157-.206-.226-.357z" fill="#2b44ff"/><path d="M425.385 236.419l.258.214 2.984-3.519-9.616-7.24-8.23 9.702c-.734 7.923-3.352 16.723-7.816 26.39l.698.579 15.681-18.486 4.535-7.393.609-.992.897.745zm-125.359 35.536v.327h4.655l-.574-11.928h-12.815c-6.608 4.537-15.105 8.21-25.462 11.041v.887h24.403l8.642-1.315 1.151-.175v1.163z" fill="#191847"/><path d="M300.299 89.242l-25.197-3.4-.185-.025-.163-.09c-5.198-2.86-9.949-4.784-14.257-5.796-.198-.001-.397.015-.565.048.165.231.48.574 1.048 1.043 1.484 1.224 3.025 2.55 4.133 3.75.551.597 1.037 1.207 1.35 1.792.292.547.56 1.31.256 2.063-.265.653-.788 1.012-1.225 1.23a8.8 8.8 0 0 1-1.019.401l-.243.085c-.575.207-.895.381-1.068.627.389.123 1.054.228 2.061.277 2.162.105 5.536-.06 10.157-.511l.239-.023.223.088 20.56 8.063 3.895-9.622zm97.013 44.62l-13.158-38.374-12.423.046 24.566 54.921c.924 2.264.374 4.973-.44 7.319-.608 1.751-1.433 3.482-2.092 4.863l-.122.255a1.43 1.43 0 0 0 .77-.187c.444-.243.817-.656 1.348-1.245l.213-.236c.586-.644 1.355-1.447 2.45-1.837 1.149-.408 2.477-.311 4.084.429 1.226.564 2.384 1.231 3.472 1.856l.372.214c1.214.696 2.338 1.32 3.469 1.757 1.119.433 2.21.669 3.342.606s2.361-.424 3.759-1.277c.1-.061.315-.316.341-.651.018-.237-.048-.681-.794-1.187-2.499-1.695-5.537-4.017-8.075-6.16-1.269-1.072-2.423-2.108-3.328-3.006-.868-.862-1.61-1.696-1.933-2.346-.691-1.386-2.642-6.684-5.821-15.76z" fill="#997659"/><path d="M319.261 79.47c-8.645 6.583-21.119 9.251-38.032 6.773l-4.305 30.62c15.601 1.828 30.122-.381 41.47-7.097 11.561-6.844 19.928-18.424 22.784-35.459 1.432-8.544 2.565-17.36 2.494-24.818l-9.618.634c-1.539 12.461-6.168 22.781-14.793 29.348z" fill="#afb9c5"/><path d="M367.767 141.606h33.038c-8.01-41.115-24.6-72.918-49.71-95.5h-.609l-16.578 3.756c-.084 14.57-2.457 26.56-5.415 37.567-1.207 4.493-2.5 8.785-3.773 13.013-1.802 5.985-3.565 11.841-4.992 17.95h45.785.916l.08.912c.637 7.244 1.039 14.678 1.258 22.302z" fill="#c5cfd6"/><path d="M364.414 118.392c-1.003-10.958-2.558-21.456-4.853-31.499.388 13.072-.377 23.582-2.323 31.499h7.176z" fill="#000" fill-opacity=".1"/></g></g></svg>