<svg width="75" height="76" viewBox="0 0 75 76" fill="none" xmlns="http://www.w3.org/2000/svg">
<g clip-path="url(#clip0_657_9918)">
<path d="M1.76562 17.6213L24.7633 1.78809L47.7611 17.6213M6.87623 47.8485H35.0629M19.6527 16.182H29.874M9.43153 39.2121V24.8183M19.6527 39.2121V24.8183M29.874 39.2121V24.8183M40.0952 26.8992V24.8183M44.8738 45.6813H63.272M44.8738 64.1054H63.272M44.8738 54.8934H54.0729M63.2723 27.2571V35.0874C63.2723 35.4539 63.4177 35.8053 63.6764 36.0645C63.9352 36.3236 64.2862 36.4692 64.6522 36.4692H72.4714M35.6747 71.9357V28.6389C35.6747 28.2725 35.8201 27.921 36.0789 27.6618C36.3376 27.4027 36.6886 27.2571 37.0546 27.2571H63.8515C64.2174 27.2574 64.5681 27.4032 64.8266 27.6625L72.0663 34.9124C72.195 35.0411 72.2971 35.1941 72.3665 35.3624C72.436 35.5308 72.4715 35.7113 72.4711 35.8934V71.9357C72.4711 72.1172 72.4354 72.2968 72.366 72.4645C72.2967 72.6321 72.1951 72.7845 72.0669 72.9128C71.9388 73.0411 71.7867 73.1429 71.6193 73.2123C71.4518 73.2818 71.2724 73.3175 71.0912 73.3175H37.0546C36.8734 73.3175 36.6939 73.2818 36.5265 73.2123C36.3591 73.1429 36.207 73.0411 36.0789 72.9128C35.9507 72.7845 35.8491 72.6321 35.7798 72.4645C35.7104 72.2968 35.6747 72.1172 35.6747 71.9357Z" stroke="black" stroke-width="3.52941" stroke-linecap="round" stroke-linejoin="round"/>
</g>
<defs>
<clipPath id="clip0_657_9918">
<rect width="75" height="76" fill="white"/>
</clipPath>
</defs>
</svg>
