<svg width="23" height="24" viewBox="0 0 23 24" fill="none" xmlns="http://www.w3.org/2000/svg">
<path d="M4.98427 0.491699H19.3588C20.1212 0.491699 20.8525 0.794589 21.3916 1.33374C21.9308 1.87288 22.2337 2.60413 22.2337 3.3666V20.616C22.2337 21.3784 21.9308 22.1097 21.3916 22.6488C20.8525 23.188 20.1212 23.4909 19.3588 23.4909H4.98427C4.2218 23.4909 3.49056 23.188 2.95141 22.6488C2.41227 22.1097 2.10938 21.3784 2.10938 20.616V19.1785H3.54682V20.616C3.54682 20.9972 3.69827 21.3628 3.96784 21.6324C4.23742 21.902 4.60304 22.0534 4.98427 22.0534H19.3588C19.74 22.0534 20.1056 21.902 20.3752 21.6324C20.6448 21.3628 20.7962 20.9972 20.7962 20.616V3.3666C20.7962 2.98536 20.6448 2.61974 20.3752 2.35017C20.1056 2.08059 19.74 1.92915 19.3588 1.92915H4.98427C4.60304 1.92915 4.23742 2.08059 3.96784 2.35017C3.69827 2.61974 3.54682 2.98536 3.54682 3.3666V4.80404H2.10938V3.3666C2.10938 2.60413 2.41227 1.87288 2.95141 1.33374C3.49056 0.794589 4.2218 0.491699 4.98427 0.491699Z" fill="#363636"/>
<path d="M2.10932 7.67915V6.96042C2.10932 6.76981 2.18505 6.587 2.31983 6.45221C2.45462 6.31742 2.63743 6.2417 2.82805 6.2417C3.01867 6.2417 3.20148 6.31742 3.33626 6.45221C3.47105 6.587 3.54677 6.76981 3.54677 6.96042V7.67915H4.2655C4.45611 7.67915 4.63892 7.75487 4.77371 7.88966C4.9085 8.02444 4.98422 8.20725 4.98422 8.39787C4.98422 8.58849 4.9085 8.7713 4.77371 8.90609C4.63892 9.04087 4.45611 9.1166 4.2655 9.1166H1.3906C1.19998 9.1166 1.01717 9.04087 0.882384 8.90609C0.747598 8.7713 0.671875 8.58849 0.671875 8.39787C0.671875 8.20725 0.747598 8.02444 0.882384 7.88966C1.01717 7.75487 1.19998 7.67915 1.3906 7.67915H2.10932ZM2.10932 11.9915V11.2728C2.10932 11.0822 2.18505 10.8993 2.31983 10.7646C2.45462 10.6298 2.63743 10.554 2.82805 10.554C3.01867 10.554 3.20148 10.6298 3.33626 10.7646C3.47105 10.8993 3.54677 11.0822 3.54677 11.2728V11.9915H4.2655C4.45611 11.9915 4.63892 12.0672 4.77371 12.202C4.9085 12.3368 4.98422 12.5196 4.98422 12.7102C4.98422 12.9008 4.9085 13.0836 4.77371 13.2184C4.63892 13.3532 4.45611 13.4289 4.2655 13.4289H1.3906C1.19998 13.4289 1.01717 13.3532 0.882384 13.2184C0.747598 13.0836 0.671875 12.9008 0.671875 12.7102C0.671875 12.5196 0.747598 12.3368 0.882384 12.202C1.01717 12.0672 1.19998 11.9915 1.3906 11.9915H2.10932ZM2.10932 16.3038V15.5851C2.10932 15.3945 2.18505 15.2117 2.31983 15.0769C2.45462 14.9421 2.63743 14.8664 2.82805 14.8664C3.01867 14.8664 3.20148 14.9421 3.33626 15.0769C3.47105 15.2117 3.54677 15.3945 3.54677 15.5851V16.3038H4.2655C4.45611 16.3038 4.63892 16.3796 4.77371 16.5143C4.9085 16.6491 4.98422 16.8319 4.98422 17.0226C4.98422 17.2132 4.9085 17.396 4.77371 17.5308C4.63892 17.6656 4.45611 17.7413 4.2655 17.7413H1.3906C1.19998 17.7413 1.01717 17.6656 0.882384 17.5308C0.747598 17.396 0.671875 17.2132 0.671875 17.0226C0.671875 16.8319 0.747598 16.6491 0.882384 16.5143C1.01717 16.3796 1.19998 16.3038 1.3906 16.3038H2.10932Z" fill="#363636"/>
<path fill-rule="evenodd" clip-rule="evenodd" d="M9.29688 1.9292H17.9216V11.9913C17.9216 12.1185 17.8879 12.2434 17.8239 12.3533C17.7599 12.4632 17.6678 12.5541 17.5572 12.6168C17.4466 12.6795 17.3213 12.7117 17.1941 12.7102C17.067 12.7086 16.9425 12.6734 16.8334 12.608L13.6092 10.6732L10.385 12.6094C10.2758 12.6749 10.1512 12.7101 10.024 12.7116C9.89668 12.7131 9.77129 12.6807 9.66061 12.6179C9.54994 12.555 9.45794 12.4639 9.39403 12.3538C9.33012 12.2437 9.2966 12.1186 9.29688 11.9913V1.9292Z" fill="#363636"/>
</svg>
