<svg width="75" height="76" viewBox="0 0 75 76" fill="none" xmlns="http://www.w3.org/2000/svg">
<path d="M41.3988 30.8408C42.5479 31.2457 43.8076 30.6424 44.2124 29.4934C44.6173 28.3443 44.014 27.0847 42.865 26.6798L41.3988 30.8408ZM42.865 48.3172C44.014 47.9123 44.6173 46.6526 44.2124 45.5036C43.8076 44.3546 42.5479 43.7513 41.3988 44.1561L42.865 48.3172ZM37.4995 70.5883C55.7741 70.5883 70.5878 55.7746 70.5878 37.5H66.176C66.176 53.3381 53.3376 66.1765 37.4995 66.1765V70.5883ZM70.5878 37.5C70.5878 19.2254 55.7741 4.41179 37.4995 4.41179V8.82356C53.3376 8.82356 66.176 21.662 66.176 37.5H70.5878ZM37.4995 4.41179C19.2249 4.41179 4.41131 19.2254 4.41131 37.5H8.82307C8.82307 21.662 21.6615 8.82356 37.4995 8.82356V4.41179ZM4.41131 37.5C4.41131 55.7746 19.2249 70.5883 37.4995 70.5883V66.1765C21.6615 66.1765 8.82307 53.3381 8.82307 37.5H4.41131ZM42.865 26.6798C41.1352 26.0703 39.2844 25.8845 37.468 26.1379L38.0776 30.5074C39.1954 30.3514 40.3343 30.4658 41.3988 30.8408L42.865 26.6798ZM37.468 26.1379C35.6516 26.3914 33.9224 27.0767 32.4255 28.1364L34.9745 31.7372C35.8957 31.0851 36.9598 30.6633 38.0776 30.5074L37.468 26.1379ZM32.4255 28.1364C30.9286 29.196 29.7076 30.5992 28.8649 32.2282L32.7834 34.2552C33.302 33.2528 34.0534 32.3893 34.9745 31.7372L32.4255 28.1364ZM28.8649 32.2282C28.0222 33.8572 27.5825 35.6645 27.5825 37.4985H31.9942C31.9942 36.3699 32.2649 35.2577 32.7834 34.2552L28.8649 32.2282ZM27.5825 37.4985C27.5825 39.3325 28.0222 41.1398 28.8649 42.7688L32.7834 40.7418C32.2649 39.7393 31.9942 38.6271 31.9942 37.4985H27.5825ZM28.8649 42.7688C29.7076 44.3978 30.9286 45.8009 32.4255 46.8606L34.9745 43.2598C34.0534 42.6077 33.302 41.7442 32.7834 40.7418L28.8649 42.7688ZM32.4255 46.8606C33.9224 47.9203 35.6516 48.6056 37.468 48.859L38.0776 44.4896C36.9598 44.3336 35.8957 43.9119 34.9745 43.2598L32.4255 46.8606ZM37.468 48.859C39.2844 49.1125 41.1352 48.9266 42.865 48.3172L41.3988 44.1561C40.3343 44.5312 39.1954 44.6456 38.0776 44.4896L37.468 48.859ZM10.7549 22.0589L64.2447 52.9412L66.4506 49.1205L12.9608 18.2382L10.7549 22.0589Z" fill="black"/>
</svg>
