<svg width="27" height="26" viewBox="0 0 27 26" fill="none" xmlns="http://www.w3.org/2000/svg">
<path d="M13.7082 23.793C7.74554 23.793 2.90625 18.9537 2.90625 12.991C2.90625 7.02827 7.74554 2.18896 13.7082 2.18896C19.6709 2.18896 24.5102 7.02827 24.5102 12.991C24.5102 18.9537 19.6709 23.793 13.7082 23.793ZM13.7082 21.6326C18.4827 21.6326 22.3498 17.7655 22.3498 12.991C22.3498 8.21649 18.4827 4.34937 13.7082 4.34937C8.93376 4.34937 5.06665 8.21649 5.06665 12.991C5.06665 17.7655 8.93376 21.6326 13.7082 21.6326ZM13.7082 18.392C11.7423 18.392 10.0215 17.341 9.07634 15.7693L10.9278 14.6577C11.4949 15.6008 12.5276 16.2316 13.7082 16.2316C15.4992 16.2316 16.9488 14.782 16.9488 12.991C16.9488 11.2 15.4992 9.75038 13.7082 9.75038C12.5276 9.75038 11.496 10.3801 10.9289 11.3232L9.07634 10.2127C10.0215 8.64101 11.7423 7.58997 13.7082 7.58997C16.6896 7.58997 19.1092 10.0096 19.1092 12.991C19.1092 15.9723 16.6896 18.392 13.7082 18.392Z" fill="#363636"/>
</svg>
