<svg width="24" height="24" viewBox="0 0 24 24" fill="none" xmlns="http://www.w3.org/2000/svg">
<path d="M12.314 22.9025C14.5046 22.9025 16.2804 18.0173 16.2804 11.9911C16.2804 5.96482 14.5046 1.07959 12.314 1.07959C10.1235 1.07959 8.34766 5.96482 8.34766 11.9911C8.34766 18.0173 10.1235 22.9025 12.314 22.9025Z" stroke="#363636" stroke-width="1.32364" stroke-linecap="round"/>
<path d="M21.7603 17.447C22.8556 15.5498 19.513 11.5692 14.2944 8.55608C9.0758 5.54296 3.95739 4.63833 2.8621 6.53552C1.76681 8.43272 5.10941 12.4133 10.328 15.4264C15.5466 18.4396 20.665 19.3442 21.7603 17.447Z" stroke="#363636" stroke-width="1.32364" stroke-linecap="round"/>
<path d="M14.3413 15.4913C19.5599 12.4782 22.9025 8.49757 21.8072 6.60038C20.7119 4.70318 15.5935 5.60781 10.3749 8.62093C5.15629 11.634 1.81369 15.6146 2.90898 17.5118C4.00426 19.409 9.12268 18.5044 14.3413 15.4913Z" stroke="#363636" stroke-width="1.32364" stroke-linecap="round"/>
<path d="M12.423 13.3281C13.1248 13.3281 13.6937 12.7591 13.6937 12.0573C13.6937 11.3555 13.1248 10.7866 12.423 10.7866C11.7212 10.7866 11.1523 11.3555 11.1523 12.0573C11.1523 12.7591 11.7212 13.3281 12.423 13.3281Z" stroke="#363636" stroke-width="1.32364" stroke-linecap="round"/>
</svg>
