<svg width="24" height="24" viewBox="0 0 24 24" fill="none" xmlns="http://www.w3.org/2000/svg">
<path d="M19.5806 22.0145H18.1487V19.8666C18.1476 18.9176 17.7701 18.0077 17.099 17.3366C16.4279 16.6655 15.5181 16.288 14.569 16.2869H10.2733C9.32428 16.288 8.41441 16.6655 7.74332 17.3366C7.07224 18.0077 6.69473 18.9176 6.69361 19.8666V22.0145H5.26172V19.8666C5.26327 18.5379 5.79178 17.2641 6.7313 16.3246C7.67083 15.385 8.94465 14.8565 10.2733 14.855H14.569C15.8977 14.8565 17.1715 15.385 18.1111 16.3246C19.0506 17.2641 19.5791 18.5379 19.5806 19.8666V22.0145Z" fill="#363636"/>
<path d="M4.54798 4.83154C4.3581 4.83154 4.17599 4.90697 4.04173 5.04124C3.90746 5.17551 3.83203 5.35761 3.83203 5.54749V11.991H5.26392V5.54749C5.26392 5.35761 5.18849 5.17551 5.05423 5.04124C4.91996 4.90697 4.73786 4.83154 4.54798 4.83154Z" fill="#363636"/>
<path d="M3.83203 1.96777V3.39967H7.41176V8.4113C7.41176 9.74047 7.93977 11.0152 8.87963 11.9551C9.81949 12.8949 11.0942 13.4229 12.4234 13.4229C13.7525 13.4229 15.0273 12.8949 15.9671 11.9551C16.907 11.0152 17.435 9.74047 17.435 8.4113V3.39967H21.0147V1.96777H3.83203ZM8.84365 3.39967H16.0031V5.54751H8.84365V3.39967ZM12.4234 11.991C11.474 11.991 10.5635 11.6139 9.89213 10.9426C9.2208 10.2712 8.84365 9.36071 8.84365 8.4113V6.97941H16.0031V8.4113C16.0031 9.36071 15.626 10.2712 14.9546 10.9426C14.2833 11.6139 13.3728 11.991 12.4234 11.991Z" fill="#363636"/>
</svg>
