<svg width="24" height="24" viewBox="0 0 24 24" fill="none" xmlns="http://www.w3.org/2000/svg">
<path d="M6.69387 0.536133C5.94441 0.536133 5.25847 0.636855 4.6816 0.804613L1.19367 1.8487C0.982687 1.90285 0.835938 2.09313 0.835938 2.31109C0.835938 2.52905 0.982687 2.71932 1.19367 2.77347L1.5216 2.86296L3.23575 4.96606V19.0464C2.98078 19.2529 2.75877 19.5033 2.75877 19.8667V20.344C2.75877 20.6895 2.95658 20.9813 3.19104 21.1793C3.42549 21.3773 3.71724 21.5208 4.05557 21.6417C4.73222 21.8835 5.60701 22.0146 6.57462 22.0146C6.84749 22.0146 7.10889 22.0043 7.36462 21.9847C7.49265 22.0992 7.62467 22.2111 7.76708 22.3129C8.76689 23.0275 10.1085 23.4465 11.5829 23.4465C13.0574 23.4465 14.399 23.0275 15.3988 22.3129C16.334 21.6444 16.9737 20.69 17.0533 19.6132C18.6551 19.5924 20.1122 19.368 21.212 18.9718C21.7879 18.7643 22.2609 18.5087 22.628 18.1962C22.9952 17.8837 23.269 17.4787 23.269 17.0029V10.8577V7.47188C23.5311 7.20081 23.746 6.88622 23.746 6.50236V6.02507C23.746 5.53498 23.4192 5.12439 23.0156 4.86165C22.6119 4.59891 22.1096 4.42197 21.4952 4.27994C20.2664 3.99588 18.6286 3.87722 16.8297 3.87722C15.0308 3.87722 13.393 3.99588 12.1642 4.27994C11.5499 4.42197 11.0475 4.59891 10.6439 4.86165C10.2402 5.12439 9.91349 5.53498 9.91349 6.02507V3.17619C10.1713 2.95629 10.3905 2.68639 10.3905 2.31109C10.3905 1.9718 10.2137 1.6756 9.98802 1.4609C9.76236 1.2462 9.48356 1.08712 9.1533 0.953769C8.49279 0.687071 7.63476 0.536133 6.69387 0.536133ZM6.69387 1.49073C7.53021 1.49073 8.29058 1.62989 8.79556 1.83379C9.04806 1.93574 9.23184 2.05157 9.33217 2.14701C9.43249 2.24246 9.43651 2.29391 9.43651 2.31109C9.43651 2.31826 9.40272 2.40947 9.16821 2.56465C9.03528 2.65513 8.95683 2.80652 8.95953 2.96737V9.70921C8.6034 9.84499 8.24965 9.9813 7.87142 10.097C7.7109 10.1439 7.5862 10.2783 7.54349 10.4401C7.50079 10.6019 7.54609 10.7674 7.66274 10.8875L8.95953 12.2598V13.3635C8.92329 13.4486 8.88468 13.528 8.82538 13.6022C8.72873 13.7231 8.59641 13.884 8.48255 14.0198V13.1845H4.66669V19.8667C4.66669 20.2315 5.39584 20.5235 6.33613 20.5678C6.40629 20.7401 6.49142 20.899 6.58953 21.06C6.58432 21.06 6.57969 21.06 6.57464 21.06C5.69919 21.06 4.90062 20.922 4.3686 20.7318C4.10259 20.6368 3.90579 20.5359 3.80218 20.4484C3.69858 20.3609 3.71275 20.3279 3.71275 20.344V19.8667C3.71275 19.9006 3.72295 19.7948 3.95124 19.6579C4.09558 19.5746 4.18599 19.4219 4.18973 19.2552V4.80199C4.18981 4.69358 4.15302 4.58837 4.08539 4.50368L2.43086 2.47516L4.94992 1.72938C5.43375 1.58868 6.034 1.49073 6.69387 1.49073ZM16.8297 4.83182C18.5853 4.83182 20.1694 4.9499 21.2716 5.20471C21.8227 5.33211 22.2605 5.50545 22.5088 5.66709C22.7571 5.82873 22.792 5.92235 22.792 6.02506V6.50236C22.792 6.59598 22.7361 6.73629 22.4939 6.93491C22.3807 7.02557 22.3149 7.16277 22.315 7.3078V10.8577V17.0029C22.315 17.12 22.2534 17.2789 22.0169 17.4802C21.7803 17.6816 21.3873 17.8956 20.8841 18.0768C19.913 18.4267 18.526 18.6577 16.9937 18.6735C16.9683 18.5019 16.9409 18.3306 16.9043 18.1663C19.6338 18.153 21.838 17.4205 21.838 16.5256V10.5594H14.6833C14.6833 10.2454 14.5108 9.99752 14.3107 9.82854C14.1105 9.65955 13.8704 9.54006 13.5952 9.44073C13.0447 9.24207 12.3393 9.1275 11.5829 9.1275C11.4994 9.1275 11.4247 9.13904 11.3444 9.14242V7.30781C11.3445 7.16277 11.2787 7.02557 11.1656 6.93492C10.9233 6.73629 10.8675 6.59598 10.8675 6.50236V6.02507C10.8675 5.92235 10.9023 5.82873 11.1507 5.66709C11.399 5.50545 11.8367 5.33211 12.3878 5.20471C13.4901 4.9499 15.0742 4.83182 16.8297 4.83182ZM9.91349 6.50236C9.91349 6.88622 10.1283 7.20081 10.3905 7.47187V9.26174C10.2271 9.29685 10.0673 9.33585 9.91349 9.38107V6.50236ZM11.5829 10.0821C12.2434 10.0821 12.8602 10.1888 13.2673 10.3357C13.4708 10.4091 13.6143 10.5 13.6846 10.5594C13.6331 10.6193 13.5973 10.691 13.5803 10.7682C13.5482 10.9214 13.3071 11.5086 13.1927 12.1405C13.0783 12.7723 13.0825 13.5575 13.5952 14.1988C14.5583 15.4035 15.9897 17.0634 16.1143 19.3894C16.1148 19.3997 16.1138 19.4089 16.1143 19.4192C16.1036 20.2156 15.6508 20.9629 14.8473 21.5373C14.0341 22.1185 12.873 22.4919 11.5829 22.4919C10.2928 22.4919 9.13178 22.1185 8.31858 21.5373C7.50539 20.956 7.0516 20.1967 7.0516 19.3894C7.02864 16.9598 8.57936 15.4388 9.57066 14.1988C10.1173 13.515 10.0694 12.6641 9.9284 12.0062C9.90955 11.9222 9.86833 11.8449 9.80915 11.7825L8.85519 10.7682C9.77959 10.4269 10.5573 10.0821 11.5829 10.0821ZM15.1454 14.6164C15.2895 14.8074 15.433 15.014 15.5776 15.228C15.4324 15.0132 15.2902 14.808 15.1454 14.6164ZM7.5584 15.1832C7.41032 15.3891 7.26551 15.6092 7.12613 15.8395C7.26709 15.6082 7.40873 15.3896 7.5584 15.1832ZM8.885 15.75C8.15295 16.7095 7.51439 17.8132 7.52858 19.3148C7.52862 19.3198 7.52862 19.3248 7.52858 19.3298C7.52858 19.9566 7.8817 20.5751 8.60179 21.0898C9.32188 21.6045 10.3848 21.9549 11.5829 21.9549C12.7811 21.9549 13.844 21.6045 14.5641 21.0898C15.2788 20.5789 15.6321 19.9667 15.6373 19.3447C15.637 19.3395 15.6376 19.3349 15.6373 19.3298C15.5556 17.8919 14.9331 16.7313 14.2361 15.75H8.885Z" fill="#363636"/>
</svg>
